<svg width="611" height="553" viewBox="0 0 611 553" fill="none" xmlns="http://www.w3.org/2000/svg">
<path d="M550.973 429.506C550.973 429.506 539.076 406.218 552.668 383.259C566.261 360.3 570.2 354.893 561.535 350.19C552.87 345.485 548.895 368.555 548.895 368.555C548.895 368.555 541.592 352.685 547.623 336.075C553.654 319.465 557.435 292.412 549.199 289.51C540.963 286.608 547.627 323.259 540.48 335.751C540.48 335.751 534.479 321.844 533.491 308.503C532.503 295.163 534.047 273.861 527.542 268.396C521.039 262.933 516.872 266.713 523.263 296.154C529.655 325.594 529.609 349.525 529.609 349.525C529.609 349.525 515.491 310.907 506.017 309.781C496.543 308.653 496.554 321.161 504.664 332.008C512.774 342.856 528.413 362.289 530.98 372.289C530.98 372.289 515.485 343.226 501.546 352.133C487.607 361.04 513.678 378.595 525.297 384.937C536.917 391.28 544.986 431.042 544.986 431.042L550.973 429.506Z" fill="#E3E3E1"/>
<path d="M541.581 439.057C541.581 439.057 553.164 415.611 539.266 392.836C525.369 370.062 521.358 364.707 529.958 359.888C538.559 355.069 542.842 378.084 542.842 378.084C542.842 378.084 549.934 362.117 543.681 345.589C537.429 329.062 533.285 302.063 541.482 299.051C549.678 296.039 543.505 332.775 550.818 345.171C550.818 345.171 556.633 331.185 557.443 317.832C558.251 304.479 556.424 283.199 562.855 277.649C569.284 272.097 573.502 275.821 567.504 305.346C561.507 334.869 561.873 358.798 561.873 358.798C561.873 358.798 575.473 319.993 584.931 318.741C594.389 317.488 594.544 329.992 586.581 340.948C578.617 351.904 563.237 371.544 560.807 381.577C560.807 381.577 575.912 352.31 589.968 361.03C604.024 369.749 578.191 387.652 566.657 394.15C555.124 400.647 547.587 440.513 547.587 440.513L541.581 439.057Z" fill="#E9E9E8"/>
<path d="M595.008 422.344H499.314L507.059 483.786H587.264L595.008 422.344Z" fill="#F4F4F4"/>
<path d="M417.1 89.6749V181.085L407.007 219.194H382.564L417.1 89.6749Z" fill="white"/>
<path d="M601.14 535.465C601.14 545.149 466.763 553 301 553C135.237 553 0.859619 545.149 0.859619 535.465C0.859619 525.781 135.237 517.93 301 517.93C466.763 517.93 601.14 525.781 601.14 535.465Z" fill="#F8F8F9"/>
<path d="M504.808 483.786H267.213C261.099 483.786 256.527 478.823 257.006 472.702L286.958 88.2906C287.435 82.1692 292.779 77.2061 298.893 77.2061H536.488C542.603 77.2061 547.174 82.1692 546.697 88.2906L516.743 472.702C516.266 478.823 510.923 483.786 504.808 483.786Z" fill="#252D32"/>
<path d="M504.808 483.786H267.213C261.398 483.786 256.978 479.296 256.972 473.59C256.97 473.297 256.983 473.001 257.006 472.702L262.187 406.201C265.071 397.258 266.802 390.348 266.557 387.211C266.376 384.905 265.554 382.672 264.189 380.512L270.95 293.729H286.47L272.912 467.742H501.61L530.791 93.2505H477.199L478.45 77.2061H536.488C542.305 77.2061 546.723 81.6969 546.731 87.4033C546.731 87.6959 546.72 87.9917 546.697 88.2906L531.85 278.826L528.136 326.496L526.884 342.563L525.46 360.841L525.257 363.448L523.653 384.019L521.347 413.613L521.317 414L520.667 422.344L516.743 472.702C516.325 478.068 512.169 482.542 507.031 483.567C506.306 483.711 505.563 483.786 504.808 483.786ZM287.105 285.574H271.586L286.958 88.2906C287.435 82.1692 292.779 77.2061 298.893 77.2061H356.932L355.682 93.2505H302.091L287.105 285.574Z" fill="#4E565D"/>
<path d="M472.622 102.342H358.844C356.706 102.342 355.109 100.608 355.276 98.4675L357.027 75.9967C357.192 73.8566 359.061 72.1222 361.199 72.1222H474.977C477.113 72.1222 478.712 73.8566 478.545 75.9967L476.794 98.4675C476.627 100.608 474.758 102.342 472.622 102.342Z" fill="#4870C0"/>
<path d="M477.199 93.2505H462.106L462.218 91.8258C462.236 91.5812 462.246 91.3365 462.246 91.0965C462.238 86.4028 458.592 82.6972 453.809 82.6972H380.717C375.688 82.6972 371.277 86.7916 370.886 91.8258L370.774 93.2505H355.681L357.027 75.9967C357.192 73.8566 359.061 72.1222 361.198 72.1222H409.186L408.643 79.0953H426.445L426.988 72.1222H474.976C477.014 72.1222 478.56 73.6971 478.555 75.6978C478.555 75.7969 478.552 75.896 478.545 75.9967L477.199 93.2505ZM459.01 93.2505H373.87L373.982 91.8258C374.24 88.5011 377.154 85.7958 380.476 85.7958H453.568C456.727 85.7958 459.136 88.2425 459.14 91.3442C459.14 91.5037 459.134 91.6632 459.122 91.8258L459.01 93.2505Z" fill="#395EB4"/>
<path d="M426.445 79.0953H408.643L409.337 70.1851C409.72 65.2638 414.016 61.2733 418.933 61.2733C423.847 61.2733 427.522 65.2638 427.139 70.1851L426.445 79.0953Z" fill="#4870C0"/>
<path d="M426.445 79.0953H408.643L409.337 70.1851C409.72 65.2638 414.016 61.2733 418.933 61.2733C423.608 61.2733 427.16 64.8829 427.166 69.4712C427.166 69.7066 427.157 69.9451 427.139 70.1851L426.445 79.0953Z" fill="#8DADE0"/>
<path d="M501.61 467.742H272.912L302.091 93.2505H530.791L501.61 467.742Z" fill="white"/>
<path d="M380.476 85.7958C377.154 85.7958 374.24 88.5011 373.982 91.8258L373.055 103.723C372.796 107.048 375.287 109.753 378.609 109.753H451.701C455.023 109.753 457.936 107.048 458.195 103.723L459.122 91.8258C459.38 88.5011 456.89 85.7958 453.568 85.7958H380.476ZM451.461 112.852H378.367C373.338 112.852 369.567 108.757 369.959 103.723L370.886 91.8258C371.278 86.7915 375.688 82.6972 380.717 82.6972H453.809C458.839 82.6972 462.61 86.7915 462.218 91.8258L461.291 103.723C460.899 108.757 456.489 112.852 451.461 112.852Z" fill="#4870C0"/>
<path d="M451.461 112.852H378.368C373.584 112.852 369.939 109.148 369.931 104.453C369.931 104.213 369.94 103.969 369.959 103.723L370.886 91.8258C371.278 86.7915 375.688 82.6972 380.717 82.6972H453.809C458.593 82.6972 462.238 86.4028 462.246 91.0964C462.246 91.3365 462.237 91.5812 462.218 91.8258L461.291 103.723C460.899 108.757 456.489 112.852 451.461 112.852ZM373.036 104.206C373.041 107.307 375.45 109.753 378.609 109.753H451.701C455.023 109.753 457.936 107.048 458.195 103.723L459.122 91.8258C459.134 91.6632 459.141 91.5037 459.141 91.3442C459.136 88.2425 456.727 85.7958 453.568 85.7958H380.476C377.154 85.7958 374.241 88.5011 373.982 91.8258L373.055 103.723C373.042 103.886 373.036 104.047 373.036 104.206Z" fill="#8DADE0"/>
<path d="M447.689 89.5557H385.768C384.594 89.5557 383.714 88.6018 383.806 87.4264L384.29 81.2261C384.381 80.0492 385.408 79.0953 386.584 79.0953H448.504C449.679 79.0953 450.559 80.0492 450.467 81.2261L449.983 87.4264C449.891 88.6018 448.865 89.5557 447.689 89.5557Z" fill="#4870C0"/>
<path d="M500.119 147.968H326.743L328.218 129.036H501.594L500.119 147.968Z" fill="#4870C0"/>
<path d="M429.955 174.307H314.536L314.916 169.421H430.335L429.955 174.307Z" fill="#4870C0"/>
<path d="M428.857 188.394H313.438L313.819 183.507H429.238L428.857 188.394Z" fill="#4870C0"/>
<path d="M427.759 202.479H312.341L312.721 197.592H428.14L427.759 202.479Z" fill="#4870C0"/>
<path d="M426.662 216.565H311.243L311.624 211.678H427.043L426.662 216.565Z" fill="#4870C0"/>
<path d="M502.399 216.565H455.308L458.981 169.421H506.073L502.399 216.565Z" fill="#4870C0"/>
<path d="M477.561 200.589C477.652 199.41 477.892 198.36 478.28 197.44C478.668 196.52 479.117 195.729 479.628 195.068C480.142 194.377 480.839 193.543 481.719 192.566C482.978 191.157 483.853 190.064 484.344 189.287C484.867 188.482 485.171 187.533 485.256 186.44C485.368 185.002 484.979 183.91 484.089 183.162C483.23 182.385 482.155 181.997 480.862 181.997C478.995 181.997 477.099 182.544 475.176 183.636L475.06 180.142C477.139 178.906 479.499 178.287 482.142 178.287C483.866 178.287 485.318 178.632 486.5 179.323C487.71 180.013 488.585 180.947 489.125 182.127C489.668 183.277 489.885 184.542 489.777 185.923C489.697 186.958 489.45 187.907 489.039 188.77C488.658 189.604 488.244 190.308 487.797 190.883C487.352 191.43 486.594 192.307 485.523 193.515C484.233 194.953 483.279 196.146 482.659 197.095C482.07 198.015 481.728 199.094 481.631 200.33L481.527 201.668H477.477L477.561 200.589ZM476.953 204.515H481.607L481.251 209.087H476.597L476.953 204.515Z" fill="white"/>
<path d="M424.396 245.642H308.978L309.359 240.755H424.778L424.396 245.642Z" fill="#4870C0"/>
<path d="M423.298 259.727H307.881L308.262 254.84H423.679L423.298 259.727Z" fill="#4870C0"/>
<path d="M422.2 273.813H306.783L307.164 268.926H422.581L422.2 273.813Z" fill="#4870C0"/>
<path d="M421.103 287.898H305.686L306.067 283.013H421.484L421.103 287.898Z" fill="#4870C0"/>
<path d="M496.84 287.898H449.75L453.422 240.755H500.514L496.84 287.898Z" fill="#4870C0"/>
<path d="M472.002 271.921C472.094 270.742 472.334 269.692 472.721 268.772C473.109 267.852 473.558 267.061 474.07 266.399C474.583 265.709 475.28 264.875 476.16 263.897C477.419 262.488 478.294 261.396 478.786 260.619C479.308 259.814 479.612 258.865 479.697 257.772C479.809 256.334 479.42 255.241 478.531 254.494C477.672 253.717 476.596 253.329 475.303 253.329C473.436 253.329 471.541 253.875 469.617 254.968L469.501 251.474C471.58 250.237 473.941 249.619 476.583 249.619C478.307 249.619 479.76 249.964 480.941 250.654C482.151 251.345 483.026 252.279 483.567 253.458C484.109 254.609 484.326 255.874 484.219 257.254C484.138 258.29 483.892 259.239 483.48 260.101C483.099 260.935 482.685 261.64 482.238 262.215C481.793 262.762 481.035 263.639 479.965 264.847C478.675 266.284 477.72 267.478 477.1 268.427C476.512 269.347 476.169 270.426 476.073 271.662L475.968 272.999H471.918L472.002 271.921ZM471.395 275.846H476.048L475.692 280.419H471.038L471.395 275.846Z" fill="white"/>
<path d="M418.838 316.975H303.419L303.8 312.088H419.219L418.838 316.975Z" fill="#4870C0"/>
<path d="M417.741 331.061H302.322L302.703 326.174H418.121L417.741 331.061Z" fill="#4870C0"/>
<path d="M416.643 345.146H301.224L301.605 340.261H417.024L416.643 345.146Z" fill="#4870C0"/>
<path d="M415.546 359.233H300.127L300.508 354.346H415.927L415.546 359.233Z" fill="#4870C0"/>
<path d="M491.282 359.233H444.191L447.865 312.088H494.955L491.282 359.233Z" fill="#4870C0"/>
<path d="M466.445 343.256C466.536 342.077 466.776 341.027 467.164 340.107C467.552 339.187 468.001 338.396 468.512 337.734C469.026 337.044 469.723 336.21 470.603 335.232C471.862 333.823 472.737 332.73 473.229 331.954C473.751 331.149 474.055 330.2 474.14 329.107C474.252 327.669 473.863 326.576 472.973 325.828C472.114 325.052 471.039 324.664 469.746 324.664C467.879 324.664 465.983 325.21 464.06 326.303L463.944 322.809C466.023 321.572 468.383 320.954 471.026 320.954C472.75 320.954 474.202 321.299 475.384 321.989C476.594 322.679 477.469 323.614 478.009 324.793C478.552 325.943 478.769 327.209 478.661 328.589C478.581 329.625 478.335 330.574 477.923 331.436C477.542 332.27 477.128 332.975 476.681 333.55C476.236 334.096 475.478 334.973 474.407 336.181C473.117 337.619 472.163 338.813 471.543 339.762C470.954 340.682 470.612 341.76 470.515 342.997L470.411 344.334H466.361L466.445 343.256ZM465.837 347.181H470.491L470.135 351.754H465.481L465.837 347.181Z" fill="white"/>
<path d="M413.279 388.309H297.861L298.241 383.421H413.66L413.279 388.309Z" fill="#4870C0"/>
<path d="M412.182 402.394H296.763L297.144 397.508H412.563L412.182 402.394Z" fill="#4870C0"/>
<path d="M411.084 416.481H295.666L296.046 411.594H411.465L411.084 416.481Z" fill="#4870C0"/>
<path d="M409.987 430.566H294.568L294.949 425.68H410.368L409.987 430.566Z" fill="#4870C0"/>
<path d="M485.724 430.566H438.633L442.306 383.421H489.398L485.724 430.566Z" fill="#4870C0"/>
<path d="M460.886 414.589C460.978 413.41 461.217 412.36 461.605 411.44C461.993 410.52 462.442 409.729 462.953 409.067C463.467 408.377 464.164 407.543 465.044 406.565C466.303 405.156 467.178 404.064 467.67 403.287C468.192 402.482 468.496 401.533 468.581 400.44C468.693 399.002 468.304 397.909 467.414 397.162C466.556 396.385 465.48 395.997 464.187 395.997C462.32 395.997 460.424 396.543 458.501 397.636L458.385 394.142C460.464 392.905 462.824 392.287 465.467 392.287C467.191 392.287 468.643 392.632 469.825 393.322C471.035 394.013 471.91 394.947 472.45 396.126C472.993 397.277 473.21 398.542 473.103 399.922C473.022 400.958 472.776 401.907 472.364 402.769C471.983 403.603 471.569 404.308 471.122 404.883C470.677 405.43 469.919 406.307 468.848 407.514C467.559 408.952 466.604 410.146 465.984 411.095C465.395 412.015 465.053 413.094 464.956 414.33L464.852 415.667H460.802L460.886 414.589ZM460.278 418.514H464.932L464.576 423.087H459.922L460.278 418.514Z" fill="white"/>
<path d="M500.119 147.968H326.743L328.218 129.036H501.594L500.119 147.968Z" fill="#C7D9F2"/>
<path d="M429.955 174.307H314.536L314.916 169.421H430.335L429.955 174.307Z" fill="#C7D9F2"/>
<path d="M428.857 188.394H313.438L313.819 183.507H429.238L428.857 188.394Z" fill="#C7D9F2"/>
<path d="M427.759 202.479H312.341L312.721 197.592H428.14L427.759 202.479Z" fill="#C7D9F2"/>
<path d="M426.662 216.565H311.243L311.624 211.678H427.043L426.662 216.565Z" fill="#C7D9F2"/>
<path d="M502.399 216.565H455.308L458.981 169.421H506.073L502.399 216.565ZM474.034 176.734L471.512 209.087H487.325L489.847 176.734H474.034Z" fill="#C7D9F2"/>
<path d="M471.512 209.087H489.847V176.734H471.512V209.087Z" fill="#C7D9F2"/>
<path d="M477.561 200.589C477.653 199.41 477.892 198.36 478.28 197.44C478.668 196.52 479.117 195.729 479.628 195.068C480.142 194.377 480.839 193.543 481.719 192.566C482.978 191.157 483.853 190.064 484.345 189.287C484.867 188.482 485.171 187.533 485.256 186.44C485.368 185.002 484.979 183.91 484.089 183.162C483.231 182.385 482.155 181.997 480.862 181.997C478.995 181.997 477.1 182.544 475.176 183.636L475.06 180.142C477.139 178.906 479.499 178.287 482.142 178.287C483.866 178.287 485.319 178.632 486.5 179.323C487.71 180.013 488.585 180.947 489.125 182.127C489.668 183.277 489.885 184.542 489.778 185.923C489.697 186.958 489.451 187.907 489.039 188.77C488.658 189.604 488.244 190.308 487.797 190.883C487.352 191.43 486.594 192.307 485.524 193.515C484.234 194.953 483.279 196.146 482.659 197.095C482.07 198.015 481.728 199.094 481.631 200.33L481.527 201.668H477.477L477.561 200.589ZM476.953 204.515H481.607L481.251 209.087H476.597L476.953 204.515Z" fill="white"/>
<path d="M424.396 245.642H308.978L309.359 240.755H424.778L424.396 245.642Z" fill="#C7D9F2"/>
<path d="M423.298 259.727H307.881L308.262 254.84H423.679L423.298 259.727Z" fill="#C7D9F2"/>
<path d="M422.2 273.813H306.783L307.164 268.926H422.581L422.2 273.813Z" fill="#C7D9F2"/>
<path d="M421.103 287.898H309.269V287.38C309.269 286.382 308.461 285.574 307.463 285.574H305.867L306.067 283.013H421.484L421.103 287.898Z" fill="#C7D9F2"/>
<path d="M496.84 287.898H449.75L453.422 240.755H500.514L496.84 287.898ZM468.475 248.067L465.955 280.421H481.768L484.288 248.067H468.475Z" fill="#C7D9F2"/>
<path d="M465.955 280.42H484.288V248.066H465.955V280.42Z" fill="#C7D9F2"/>
<path d="M472.002 271.921C472.094 270.742 472.334 269.692 472.721 268.772C473.109 267.852 473.558 267.061 474.07 266.399C474.583 265.709 475.28 264.875 476.16 263.897C477.419 262.488 478.294 261.396 478.786 260.619C479.308 259.814 479.612 258.865 479.697 257.772C479.809 256.334 479.42 255.241 478.531 254.494C477.672 253.717 476.596 253.329 475.303 253.329C473.436 253.329 471.541 253.875 469.617 254.968L469.501 251.474C471.58 250.237 473.941 249.619 476.583 249.619C478.307 249.619 479.76 249.964 480.941 250.654C482.151 251.345 483.026 252.279 483.567 253.458C484.109 254.609 484.326 255.874 484.219 257.254C484.138 258.29 483.892 259.239 483.48 260.101C483.099 260.935 482.685 261.64 482.238 262.215C481.793 262.762 481.035 263.639 479.965 264.847C478.675 266.284 477.72 267.478 477.1 268.427C476.512 269.347 476.169 270.426 476.073 271.662L475.968 272.999H471.918L472.002 271.921ZM471.395 275.846H476.048L475.692 280.419H471.038L471.395 275.846Z" fill="white"/>
<path d="M418.838 316.975H303.419L303.8 312.088H419.219L418.838 316.975Z" fill="#C7D9F2"/>
<path d="M417.741 331.061H302.322L302.703 326.174H418.121L417.741 331.061Z" fill="#C7D9F2"/>
<path d="M416.643 345.146H301.224L301.605 340.261H417.024L416.643 345.146Z" fill="#C7D9F2"/>
<path d="M415.546 359.233H300.127L300.508 354.346H415.927L415.546 359.233Z" fill="#C7D9F2"/>
<path d="M491.282 359.233H444.191L447.865 312.088H494.955L491.282 359.233ZM462.916 319.402L460.396 351.755H476.209L478.73 319.402H462.916Z" fill="#C7D9F2"/>
<path d="M460.396 351.755H478.73V319.402H460.396V351.755Z" fill="#C7D9F2"/>
<path d="M466.445 343.256C466.536 342.077 466.776 341.027 467.164 340.107C467.552 339.187 468.001 338.396 468.512 337.734C469.026 337.044 469.723 336.21 470.603 335.232C471.862 333.823 472.737 332.73 473.229 331.954C473.751 331.149 474.055 330.2 474.14 329.107C474.252 327.669 473.863 326.576 472.973 325.828C472.114 325.052 471.039 324.664 469.746 324.664C467.879 324.664 465.983 325.21 464.06 326.303L463.944 322.809C466.023 321.572 468.383 320.954 471.026 320.954C472.75 320.954 474.202 321.299 475.384 321.989C476.594 322.679 477.469 323.614 478.009 324.793C478.552 325.943 478.769 327.209 478.661 328.589C478.581 329.625 478.335 330.574 477.923 331.436C477.542 332.27 477.128 332.975 476.681 333.55C476.236 334.096 475.478 334.973 474.407 336.181C473.117 337.619 472.163 338.813 471.543 339.762C470.954 340.682 470.612 341.76 470.515 342.997L470.411 344.334H466.361L466.445 343.256ZM465.837 347.181H470.491L470.135 351.754H465.481L465.837 347.181Z" fill="white"/>
<path d="M413.279 388.309H297.861L298.241 383.421H413.66L413.279 388.309Z" fill="#C7D9F2"/>
<path d="M412.182 402.394H296.763L297.144 397.508H412.563L412.182 402.394Z" fill="#C7D9F2"/>
<path d="M411.084 416.481H295.666L296.046 411.594H411.465L411.084 416.481Z" fill="#C7D9F2"/>
<path d="M409.987 430.566H294.568L294.949 425.68H410.368L409.987 430.566Z" fill="#C7D9F2"/>
<path d="M485.724 430.566H438.633L442.306 383.421H489.398L485.724 430.566ZM457.359 390.737L454.837 423.087H470.651L473.172 390.737H457.359Z" fill="#C7D9F2"/>
<path d="M454.837 423.087H473.171V390.736H454.837V423.087Z" fill="#C7D9F2"/>
<path d="M460.886 414.589C460.978 413.41 461.217 412.36 461.605 411.44C461.993 410.52 462.442 409.729 462.953 409.067C463.467 408.377 464.164 407.543 465.044 406.565C466.303 405.156 467.178 404.064 467.67 403.287C468.192 402.482 468.496 401.533 468.581 400.44C468.693 399.002 468.304 397.909 467.414 397.162C466.556 396.385 465.48 395.997 464.187 395.997C462.32 395.997 460.424 396.543 458.501 397.636L458.385 394.142C460.464 392.905 462.824 392.287 465.467 392.287C467.191 392.287 468.643 392.632 469.825 393.322C471.035 394.013 471.91 394.947 472.45 396.126C472.993 397.277 473.21 398.542 473.103 399.922C473.022 400.958 472.776 401.907 472.364 402.769C471.983 403.603 471.569 404.308 471.122 404.883C470.677 405.43 469.919 406.307 468.848 407.514C467.559 408.952 466.604 410.146 465.984 411.095C465.395 412.015 465.053 413.094 464.956 414.33L464.852 415.667H460.802L460.886 414.589ZM460.278 418.514H464.932L464.576 423.087H459.922L460.278 418.514Z" fill="white"/>
<path d="M223.6 288.879V331.527C223.6 339.934 220.358 348.017 214.55 354.095L174.753 395.728H197.284L238.62 355.037C244.857 348.898 248.368 340.514 248.368 331.762V288.879H223.6Z" fill="#4870C0"/>
<path d="M214.75 353.883C214.747 353.882 214.745 353.882 214.741 353.88C216.532 351.981 218.07 349.889 219.34 347.655C218.072 349.889 216.535 351.981 214.75 353.883ZM241.597 351.673C242.6 350.369 243.499 348.996 244.29 347.567C243.501 348.997 242.602 350.371 241.597 351.673ZM223.592 332.233C223.592 332.227 223.592 332.221 223.592 332.214C223.592 332.221 223.592 332.227 223.592 332.233ZM223.592 332.211C223.597 331.984 223.6 331.754 223.6 331.525V331.527C223.6 331.754 223.597 331.984 223.592 332.211Z" fill="white"/>
<path d="M233.221 360.344C227.385 358.015 221.129 355.861 214.75 353.883C216.535 351.981 218.072 349.889 219.34 347.655C221.998 342.981 223.475 337.685 223.592 332.233C223.592 332.227 223.592 332.221 223.592 332.214C223.592 332.213 223.592 332.213 223.592 332.211C223.597 331.984 223.6 331.754 223.6 331.527C223.6 331.525 223.6 331.525 223.6 331.525V293.729V329.218L247.563 338.896C246.891 341.933 245.787 344.852 244.29 347.567C243.499 348.996 242.6 350.369 241.597 351.673C240.688 352.855 239.693 353.977 238.616 355.032L233.221 360.344Z" fill="#8DADE0"/>
<path d="M248.14 335.612C248.277 334.458 248.352 333.295 248.366 332.123C248.352 333.297 248.278 334.461 248.14 335.612ZM248.366 332.118C248.366 332.106 248.366 332.095 248.366 332.081C248.366 332.094 248.366 332.106 248.366 332.118ZM248.366 332.055C248.366 332.047 248.366 332.041 248.366 332.035C248.366 332.041 248.366 332.047 248.366 332.055ZM248.366 331.993C248.366 331.99 248.366 331.985 248.366 331.982C248.366 331.985 248.366 331.99 248.366 331.993Z" fill="#CECDCB"/>
<path d="M247.563 338.896L223.6 329.218V293.729H248.368V331.758C248.368 331.833 248.368 331.908 248.366 331.982C248.366 331.985 248.366 331.99 248.366 331.993C248.366 332.007 248.366 332.021 248.366 332.035C248.366 332.041 248.366 332.047 248.366 332.055C248.366 332.064 248.366 332.073 248.366 332.081C248.366 332.095 248.366 332.106 248.366 332.118C248.366 332.12 248.366 332.121 248.366 332.123C248.352 333.295 248.277 334.458 248.14 335.612C248.007 336.719 247.815 337.814 247.563 338.896Z" fill="#678ACF"/>
<path d="M159.107 400.373L125.774 527.452C125.152 529.826 123.005 531.483 120.553 531.483H60.9717C59.9703 531.483 59.0451 531.028 58.4332 530.235C57.8212 529.442 57.6157 528.429 57.8703 527.46L91.2258 400.373H84.8249L51.8808 525.889C51.1359 528.73 51.7374 531.694 53.5309 534.018C55.3238 536.344 58.0359 537.677 60.9717 537.677H120.553C125.817 537.677 130.427 534.119 131.763 529.026L165.508 400.373H159.107Z" fill="#4870C0"/>
<path d="M120.553 537.677H60.9716C58.0358 537.677 55.3237 536.344 53.5308 534.018C52.2416 532.347 51.5681 530.347 51.5681 528.298C51.5681 527.496 51.6715 526.687 51.8807 525.889L80.2721 417.718L86.1993 419.528L69.5227 483.064L69.4221 483.451L57.8702 527.46C57.7988 527.732 57.7631 528.01 57.7631 528.282C57.7631 528.982 57.9934 529.665 58.433 530.235C59.045 531.028 59.9702 531.483 60.9716 531.483H120.553C123.005 531.483 125.152 529.826 125.774 527.452L144.726 455.201L147.926 467.408L143.819 483.064L143.717 483.451L138.655 502.748L138.554 503.135L131.763 529.026C130.427 534.119 125.817 537.677 120.553 537.677Z" fill="#8DADE0"/>
<path d="M151.127 455.202L147.927 442.995L157.88 405.054H157.883L149.064 438.669L154.989 440.476L151.127 455.202ZM163.188 409.222L164.279 405.054H164.281L163.188 409.222Z" fill="#8DADE0"/>
<path d="M172.748 537.677L136.294 398.62L130.305 400.189L166.347 537.677H172.748Z" fill="#4870C0"/>
<path d="M247.052 537.677L210.598 398.62L204.609 400.189L240.651 537.677H247.052Z" fill="#4870C0"/>
<path d="M172.748 537.677H166.347L147.926 467.408L144.726 455.201L137.629 428.125L144.575 430.229L137.979 405.054H137.982L172.748 537.677Z" fill="#A1BCE6"/>
<path d="M247.052 537.677H240.651L228.653 491.91C229.792 489.233 231.128 486.077 232.603 482.562L247.052 537.677ZM217.928 426.901L212.214 405.054H212.286L217.971 426.745C217.957 426.794 217.942 426.85 217.928 426.901Z" fill="#A1BCE6"/>
<path d="M86.1995 419.528L87.6499 414H87.6515L86.1995 419.528ZM87.7536 413.613H87.7521L89.9983 405.054H90.0014L87.7536 413.613Z" fill="#CECDCB"/>
<path d="M87.6514 414H87.6499L87.7519 413.614H87.7535L87.6514 414Z" fill="#BDBCBA"/>
<path d="M80.2721 417.719L80.2705 417.717L81.2458 414H81.2473L80.2721 417.719ZM81.3495 413.613H81.3479L83.5941 405.054H83.5956L81.3495 413.613Z" fill="#CECDCB"/>
<path d="M81.2474 414H81.2458L81.3479 413.614H81.3494L81.2474 414Z" fill="#BDBCBA"/>
<path d="M86.1995 419.528L80.2722 417.719L83.5958 405.054H89.9983L87.7522 413.613L87.65 414L86.1995 419.528Z" fill="#678ACF"/>
<path d="M137.629 428.125L137.624 428.123L133.923 414H133.926L137.629 428.125ZM133.824 413.613H133.821L131.578 405.054H131.581L133.824 413.613Z" fill="#CECDCB"/>
<path d="M133.926 414H133.923L133.821 413.614H133.824L133.926 414Z" fill="#BDBCBA"/>
<path d="M144.574 430.229L137.629 428.125L131.581 405.054H137.978L144.574 430.229Z" fill="#7A95D4"/>
<path d="M155.008 440.48L154.99 440.476L161.934 414H161.937L155.008 440.48ZM162.039 413.613H162.036L163.188 409.222L162.039 413.613Z" fill="#CECDCB"/>
<path d="M161.937 414H161.934L162.036 413.614H162.039L161.937 414Z" fill="#BDBCBA"/>
<path d="M154.989 440.476L149.064 438.669L157.883 405.054H164.279L163.188 409.222L162.036 413.613L161.934 414L154.989 440.476Z" fill="#678ACF"/>
<path d="M214.694 439.108L209.522 419.354C209.536 419.268 209.55 419.179 209.564 419.092L214.752 438.881C214.733 438.956 214.713 439.033 214.694 439.108Z" fill="#CECDCB"/>
<path d="M214.752 438.881L209.564 419.092C210.334 414.259 211.047 409.547 211.677 405.054H212.214L217.928 426.901C216.834 430.819 215.772 434.838 214.752 438.881Z" fill="#7A95D4"/>
<path d="M79.1762 402.501L50.1605 245.744L49.7698 243.375C49.2136 240.335 49.9724 237.26 51.862 234.993C53.6936 232.794 56.3392 231.583 59.3106 231.583H121.974C127.748 231.583 133.342 236.392 134.444 242.305L134.909 244.948L163.842 401.343L157.753 402.471L128.729 245.597L128.35 243.4C127.794 240.423 124.813 237.777 121.974 237.777H59.3106C58.1931 237.777 57.2619 238.186 56.618 238.958C55.9081 239.81 55.6359 241.033 55.87 242.314L56.3096 244.909L85.266 401.373L79.1762 402.501Z" fill="#4870C0"/>
<path d="M79.1761 402.501L50.1604 245.744L49.7696 243.375C49.65 242.721 49.5913 242.066 49.5913 241.419C49.5919 239.051 50.378 236.773 51.8619 234.993C53.6935 232.794 56.339 231.583 59.3104 231.583H91.718C92.0477 233.556 92.5415 235.631 93.1746 237.777H59.3104C58.1929 237.777 57.2618 238.186 56.6178 238.958C56.0742 239.61 55.7875 240.481 55.7875 241.427C55.7881 241.716 55.8154 242.014 55.8698 242.314L56.3095 244.909L56.4225 245.52H53.1958L64.9298 309.01H68.1721L84.0894 395.02V396.003H82.2395C80.5197 396.003 79.1265 397.398 79.1265 399.119V401.94C79.1265 402.131 79.1436 402.319 79.1776 402.501H79.1761Z" fill="#A1BCE6"/>
<path d="M210.923 386.953H91.8296C87.5556 386.953 84.0896 390.419 84.0896 394.696V405.054H218.663V394.696C218.663 390.419 215.197 386.953 210.923 386.953Z" fill="#4870C0"/>
<path d="M220.513 396.003H82.2397C80.5199 396.003 79.1267 397.398 79.1267 399.119V401.94C79.1267 403.659 80.5199 405.054 82.2397 405.054H220.513C222.232 405.054 223.626 403.659 223.626 401.94V399.119C223.626 397.398 222.232 396.003 220.513 396.003Z" fill="#4870C0"/>
<path d="M220.513 405.054H211.677C212.117 401.917 212.516 398.893 212.868 396.003H220.513C222.232 396.003 223.626 397.398 223.626 399.119V401.94C223.626 403.659 222.232 405.054 220.513 405.054ZM175.936 405.054H164.279H157.883H137.979H131.581H89.9983H83.5958H82.2397C80.7119 405.054 79.441 403.953 79.1778 402.501C79.1437 402.319 79.1267 402.131 79.1267 401.94V399.119C79.1267 397.398 80.5199 396.003 82.2397 396.003H177.584C176.988 398.879 176.44 401.911 175.936 405.054Z" fill="#B4CAEC"/>
<path d="M143.615 309.01H64.93L53.196 245.52H131.866L143.507 308.421L143.615 309.01Z" fill="#4870C0"/>
<path d="M221.018 173.714C221.018 173.714 211.129 150.728 210.265 148.27C209.402 145.813 210.42 133.37 209.671 131.157C208.922 128.943 197.417 127.486 194.987 127.769C192.555 128.051 194.705 147.274 195.703 148.801C196.702 150.328 200.121 153.015 200.121 153.015L208.864 179.399L221.018 173.714Z" fill="#CD6857"/>
<path d="M170.921 217.095C177.675 218.163 205.303 222.147 211.474 218.033C216.464 214.707 202.417 160.801 202.417 160.801L214.916 155.712C214.916 155.712 244.592 221.079 228.738 236.012C220.683 243.599 198.058 245.52 165.503 245.52L170.921 217.095Z" fill="#4870C0"/>
<path d="M174.46 245.465V245.462C175.812 245.447 177.143 245.425 178.452 245.4C177.143 245.427 175.81 245.448 174.46 245.465ZM182.408 245.303C180.301 237.36 175.329 231.414 172.994 228.955C171.971 220.983 170.921 217.095 170.921 217.095C175.471 217.815 189.488 219.857 200.042 219.857C205.159 219.857 209.459 219.377 211.474 218.033C212.227 217.531 212.546 215.879 212.546 213.432C212.546 202.131 205.717 173.905 203.273 164.167L216.349 158.991C220.688 169.141 233.394 200.597 233.399 220.917C233.4 227.468 232.081 232.862 228.738 236.012C222.162 242.206 205.878 244.623 182.408 245.303Z" fill="#DBE8F7"/>
<path d="M178.452 245.4C179.793 245.373 181.11 245.34 182.408 245.303C181.112 245.342 179.793 245.373 178.452 245.4Z" fill="#E8E8E7"/>
<path d="M174.46 245.462C174.092 238.749 173.547 233.258 172.994 228.955C175.329 231.414 180.301 237.36 182.408 245.303C181.11 245.34 179.793 245.372 178.452 245.4C177.143 245.425 175.812 245.447 174.46 245.462Z" fill="#C4D1EA"/>
<path d="M208.801 255.859L241.568 290.511L243.817 288.383L211.05 253.73L208.801 255.859Z" fill="#252D32"/>
<path d="M186.448 275.2C186.448 275.2 211.451 274.426 214.043 274.168C216.634 273.91 227.47 267.716 229.792 267.458C232.114 267.199 238.306 277.008 239.08 279.33C239.854 281.653 221.536 287.847 219.73 287.589C217.923 287.33 214.043 285.37 214.043 285.37L186.448 288.622V275.2Z" fill="#CD6857"/>
<path d="M171.748 525.54L184.079 523.846L185.788 494.523L173.474 496.229L171.748 525.54Z" fill="#CD6857"/>
<path d="M185.008 522.361L171.078 521.49C170.593 521.439 170.158 521.789 170.106 522.274L170.104 522.288L168.737 533.282C168.661 534.484 169.567 535.523 170.768 535.613C175.634 535.837 177.968 535.701 184.103 536.036C187.866 536.26 195.281 537.061 200.474 536.558C205.668 536.054 205.032 530.933 202.789 530.688C197.471 530.084 190.428 526.175 187.1 523.208C186.516 522.701 185.781 522.402 185.008 522.361Z" fill="#252D32"/>
<path d="M191.242 522.406C190.45 522.038 188.321 522.949 186.823 523.776C189.015 524.352 190.649 524.383 191.272 523.849C191.535 523.581 191.637 523.195 191.542 522.831C191.524 522.647 191.411 522.485 191.242 522.406ZM189.282 524.748C188.165 524.653 187.063 524.433 185.994 524.095L185.789 523.865L185.92 523.573C186.333 523.321 190.001 521.144 191.488 521.827C191.829 521.989 192.063 522.316 192.106 522.69C192.275 523.265 192.097 523.884 191.651 524.284C190.947 524.73 190.101 524.895 189.282 524.748Z" fill="#4870C0"/>
<path d="M188.072 519.272C187.838 519.254 187.609 519.336 187.439 519.496C186.641 520.171 186.425 522.209 186.384 523.378C187.51 522.537 188.81 520.654 188.733 519.743C188.719 519.575 188.623 519.364 188.213 519.292L188.072 519.272ZM186.058 524.104L185.934 524.115L185.79 523.88C185.796 523.77 185.737 520.138 187.055 519.001C187.406 518.712 187.869 518.593 188.316 518.677C188.824 518.725 189.236 519.112 189.313 519.616C189.507 520.984 187.496 523.471 186.214 524.123L186.058 524.104Z" fill="#4870C0"/>
<path d="M172.51 512.38L172.891 506.013L172.898 506.014L172.524 512.379L172.51 512.38ZM184.99 508.216L185.064 506.943L184.99 508.216Z" fill="#CECDCB"/>
<path d="M172.524 512.379L172.898 506.014L185.064 506.943L184.99 508.217L184.81 511.3L172.524 512.379Z" fill="#A25245"/>
<path d="M172.244 353.158L169.234 334.303L100.101 330.167C100.101 330.167 92.7492 369.402 98.3978 379.855C105.596 393.177 135.352 392.189 157.575 391.201C166.479 390.805 174.174 390.408 178.723 390.933C169.219 429.817 170.148 505.804 170.148 505.804L192.857 507.538C192.857 507.538 210.331 425.658 213.863 386.752C216.247 360.498 194.502 361.152 172.244 353.158Z" fill="#252D32"/>
<path d="M167.485 506.872L194.776 508.668L197.114 496.977L167.129 495.583L167.485 506.872Z" fill="#4870C0"/>
<path d="M200.196 514.588L212.609 515.502L220.386 487.178L207.987 486.281L200.196 514.588Z" fill="#CD6857"/>
<path d="M213.827 514.243L200.383 510.49C199.92 510.338 199.422 510.59 199.268 511.053L199.265 511.067L195.638 521.535C195.315 522.695 195.984 523.9 197.14 524.238C201.852 525.47 204.163 525.825 210.094 527.429C213.727 528.433 220.813 530.762 225.998 531.351C231.18 531.942 231.625 526.8 229.484 526.092C224.408 524.393 218.334 519.103 215.696 515.509C215.231 514.89 214.573 514.445 213.827 514.243Z" fill="#252D32"/>
<path d="M219.914 515.586C219.216 515.061 216.945 515.509 215.306 516.006C217.33 517.024 218.922 517.398 219.643 517.004C219.956 516.797 220.137 516.441 220.12 516.064C220.14 515.88 220.063 515.699 219.914 515.586ZM217.51 517.469C216.437 517.142 215.405 516.698 214.431 516.145L214.278 515.876L214.465 515.619C214.923 515.457 218.964 514.093 220.276 515.07C220.575 515.301 220.735 515.668 220.7 516.044C220.745 516.642 220.442 517.21 219.923 517.508C219.142 517.797 218.281 517.783 217.51 517.469Z" fill="#4870C0"/>
<path d="M217.467 511.86C217.242 511.795 216.999 511.826 216.799 511.948C215.88 512.44 215.244 514.39 214.96 515.525C216.236 514.936 217.9 513.367 218.015 512.459C218.036 512.29 217.987 512.066 217.6 511.908L217.467 511.86ZM214.49 516.168L214.368 516.153L214.275 515.891C214.304 515.786 215.002 512.221 216.527 511.383C216.933 511.174 217.408 511.154 217.829 511.329C218.316 511.482 218.637 511.947 218.608 512.456C218.513 513.833 216.029 515.846 214.64 516.218L214.49 516.168Z" fill="#4870C0"/>
<path d="M203.694 501.878L203.682 501.877L205.377 495.735L205.385 495.738L203.694 501.878ZM216.727 500.505L217.091 499.179L216.727 500.505Z" fill="#CECDCB"/>
<path d="M215.936 503.383L203.694 501.878L205.385 495.738L217.091 499.179L216.727 500.505L215.936 503.383Z" fill="#A25245"/>
<path d="M224.591 501.384L202.733 494.958C202.733 494.958 215.783 421.278 229.018 395.728C228.027 395.402 226.711 394.984 225.086 394.504C222.16 393.622 218.275 392.522 213.708 391.252C181.943 382.441 117.562 365.918 117.562 365.918L146.974 338.463C146.974 338.463 264.127 356.333 266.557 387.211C267.718 402.061 224.591 501.384 224.591 501.384Z" fill="#252D32"/>
<path d="M199.912 495.442L226.231 502.886L230.951 491.938L201.915 484.327L199.912 495.442Z" fill="#4870C0"/>
<path d="M225.086 394.504C223.215 393.941 220.948 393.287 218.363 392.556C216.908 392.146 215.352 391.711 213.708 391.252C214.622 383.757 214.637 375.163 211.03 370.781C203.863 362.047 185.426 356.921 174.931 355.063C166.154 353.515 136.664 350.433 136.664 350.433C136.664 350.433 142.528 349.871 152.01 349.871C166.751 349.871 190.242 351.23 214.049 358.176C233.383 363.828 229.622 382.735 225.086 394.504Z" fill="#1E2225"/>
<path d="M170.922 217.095C170.922 217.095 180.953 254.26 169.234 334.303C147.392 333.839 110.689 332.987 100.054 332.755C99.7909 321.605 108.011 266.973 98.3977 214.276C105.319 213.075 112.319 212.381 119.342 212.201C129.619 211.83 139.91 212.053 150.163 212.867C157.181 213.733 164.123 215.145 170.922 217.095Z" fill="#4870C0"/>
<path d="M169.234 334.303C147.392 333.839 110.689 332.987 100.054 332.755C100.049 332.575 100.048 332.385 100.048 332.182C100.049 324.498 103.079 300.761 103.077 271.422C103.077 270.612 103.074 269.794 103.07 268.977C106.721 272.509 110.858 276.066 114.909 278.64C120.502 286.175 125.81 291.802 129.172 293.524C131.658 294.799 136.102 295.313 141.653 295.313C147.858 295.313 155.451 294.67 163.247 293.729H173.744C172.866 305.768 171.434 319.281 169.234 334.303ZM158.816 273.734C150.211 273.734 143.37 273.588 141.695 273.166C136.35 271.814 123.655 244.488 116.351 231.583C109.048 218.679 98.3977 214.276 98.3977 214.276C104.094 213.287 109.844 212.643 115.616 212.345L115.613 212.347C115.613 212.347 115.615 212.373 115.621 212.423C115.906 215.154 117.54 217.426 119.63 219.255C121.797 221.486 125.13 224.035 130.256 226.55L140.076 219.448C140.076 219.448 142.876 237.583 144.635 251.133C144.635 251.133 144.517 229.454 142.65 221.13L150.163 223.797C150.711 221.971 150.892 220.155 150.892 218.544C150.89 215.334 150.163 212.945 150.163 212.945L150.037 212.858C150.079 212.861 150.121 212.864 150.163 212.867C157.181 213.733 164.123 215.145 170.922 217.095C170.922 217.095 174.92 231.908 174.918 262.975C174.918 266.332 174.872 269.875 174.768 273.615C169.299 273.686 163.767 273.734 158.816 273.734Z" fill="#C7D9F2"/>
<path d="M103.07 268.977C103.065 268.974 103.062 268.969 103.057 268.964C103.045 266.021 102.998 263.023 102.913 259.983C102.915 259.984 102.916 259.988 102.918 259.989C103.005 263.03 103.053 266.031 103.07 268.977Z" fill="#4168BB"/>
<path d="M114.909 278.64C110.858 276.066 106.721 272.509 103.07 268.977C103.053 266.031 103.005 263.03 102.918 259.989C106.641 266.699 110.85 273.172 114.909 278.64Z" fill="#B0C2E8"/>
<path d="M98.3977 214.276C74.7334 222.809 116.272 286.918 129.172 293.524C142.071 300.132 207.604 286.299 207.604 286.299L205.024 273.036C205.024 273.036 147.041 274.516 141.695 273.166C136.35 271.814 123.655 244.488 116.351 231.583C109.048 218.679 98.3977 214.276 98.3977 214.276Z" fill="#4870C0"/>
<path d="M141.653 295.313C136.102 295.313 131.658 294.799 129.172 293.524C119.043 288.338 91.2599 247.701 91.2444 226.35C91.2397 220.508 93.3141 216.11 98.3977 214.276C98.3977 214.276 109.048 218.679 116.351 231.583C123.655 244.488 136.35 271.814 141.695 273.166C143.37 273.588 150.211 273.734 158.816 273.734C173.059 273.734 192.135 273.336 200.628 273.141L202.996 285.574H153.16C152.753 285.574 152.378 285.707 152.076 285.935C151.406 286.131 150.844 286.528 150.844 287.175V291.712C150.844 292.278 151.259 292.779 151.801 293.111C152.132 293.49 152.618 293.729 153.16 293.729H163.247C155.451 294.67 147.858 295.313 141.653 295.313Z" fill="#DBE8F7"/>
<path d="M200.38 271.845L203.734 289.447L209.926 287.33L207.604 271.845H200.38Z" fill="#4870C0"/>
<path d="M209.662 285.574H202.996L200.38 271.845H207.604L209.662 285.574Z" fill="#C7D9F2"/>
<path d="M202.049 164.652L218.705 158.057L215.467 152.369L200.696 157.554L202.049 164.652Z" fill="#4870C0"/>
<path d="M202.049 164.652L200.696 157.554L215.467 152.369L218.705 158.057L216.349 158.991L203.273 164.167L202.049 164.652Z" fill="#C7D9F2"/>
<path d="M144.635 251.133C142.876 237.583 140.076 219.448 140.076 219.448L130.256 226.55C125.13 224.035 121.797 221.486 119.63 219.255C124.059 223.128 130.531 225.001 130.531 225.001L140.076 218.033L150.163 223.797L142.65 221.13C144.517 229.454 144.635 251.133 144.635 251.133ZM115.621 212.423C115.615 212.373 115.613 212.347 115.613 212.347C115.616 212.372 115.618 212.398 115.621 212.423Z" fill="#B0C2E8"/>
<path d="M123.135 177.638C124.868 187.595 126.416 205.806 119.342 212.279L140.076 218.033L150.163 212.945C139.156 210.064 139.621 201.857 141.711 194.192L123.135 177.638Z" fill="#CD6857"/>
<path d="M140.627 199.643C136.417 198.946 130.72 194.176 130.364 189.748C130.144 187.956 130.26 186.139 130.705 184.39L141.695 194.192C141.185 195.976 140.827 197.798 140.627 199.643Z" fill="#A25245"/>
<path d="M137.794 149.966C133.289 154.859 137.175 160.449 151.556 167.247C154.977 159.706 152.887 147.116 148.243 144.917C143.599 142.719 141.726 145.723 137.794 149.966Z" fill="#252D32"/>
<path d="M117.098 165.358C120.751 178.319 122.237 186.078 130.318 191.389C142.485 199.364 157.392 189.84 157.686 176.043C157.934 163.655 151.928 144.53 137.949 142.099C127.968 140.311 118.427 146.954 116.639 156.937C116.138 159.742 116.294 162.625 117.098 165.358Z" fill="#CD6857"/>
<path d="M137.485 164.708C137.717 165.776 138.475 166.519 139.172 166.365C139.869 166.21 140.24 165.234 140.008 164.166C139.776 163.097 139.033 162.354 138.336 162.493C137.639 162.633 137.33 163.639 137.485 164.708Z" fill="#252D32"/>
<path d="M149.637 162.091C149.869 163.159 150.627 163.903 151.324 163.748C152.021 163.593 152.408 162.617 152.175 161.533C151.943 160.449 151.185 159.721 150.488 159.876C149.791 160.031 149.404 161.022 149.637 162.091Z" fill="#252D32"/>
<path d="M145.782 163.453C147.765 166.445 150.15 169.15 152.872 171.49C151.324 173.674 147.965 173.55 147.965 173.55L145.782 163.453Z" fill="#B93C36"/>
<path d="M133.336 161.595H132.918C132.596 161.448 132.451 161.069 132.593 160.743C133.415 158.84 135.113 157.459 137.144 157.042C137.48 156.98 137.804 157.203 137.865 157.539L137.872 157.584C137.91 157.931 137.674 158.249 137.33 158.312C135.735 158.665 134.41 159.768 133.769 161.27C133.678 161.436 133.52 161.553 133.336 161.595Z" fill="#252D32"/>
<path d="M154.28 156.795C154.037 156.844 153.787 156.754 153.63 156.562C152.658 155.246 151.116 154.475 149.482 154.487C149.127 154.514 148.818 154.252 148.785 153.899C148.757 153.55 149.011 153.242 149.358 153.202C151.429 153.156 153.395 154.113 154.636 155.773C154.855 156.047 154.81 156.446 154.536 156.665L154.528 156.671L154.28 156.795Z" fill="#252D32"/>
<path d="M119.807 152.583C126.401 153.357 127.082 160.14 120.581 174.649C113.073 171.15 106.463 160.217 108.584 155.54C110.704 150.864 114.048 151.917 119.807 152.583Z" fill="#252D32"/>
<path d="M113.119 177.22C114.723 180.205 117.446 182.432 120.689 183.414C124.992 184.668 127.191 180.828 126.045 176.74C125.008 173.054 121.509 167.96 117.175 168.502C112.841 169.044 111.169 173.55 113.119 177.22Z" fill="#CD6857"/>
<path d="M109.172 154.456C109.172 154.456 105.899 150.237 112.311 141.808C118.723 133.381 134.214 130.799 146.141 133.122C158.068 135.445 150.972 148.608 146.715 150.802L147.232 148.736C147.232 148.736 139.904 152.738 132.539 152.738L134.878 150.543C134.878 150.543 116.131 155.403 109.172 154.456Z" fill="#252D32"/>
<path d="M147.17 177.108C146.796 178.833 146.729 181.924 146.729 181.924C146.448 181.969 146.167 182.014 145.884 182.044C142.057 182.551 140.115 181.522 139.121 180.227C138.581 179.516 138.33 178.716 138.215 178.051C138.074 177.283 138.149 176.704 138.149 176.704C140.339 177.647 143.943 177.449 145.862 177.262C146.667 177.192 147.17 177.108 147.17 177.108Z" fill="#252D32"/>
<path d="M145.862 177.262L145.697 178.679C142.091 179.148 139.489 178.995 138.215 178.051C138.074 177.283 138.149 176.704 138.149 176.704C140.339 177.647 143.943 177.449 145.862 177.262Z" fill="white"/>
<path d="M145.884 182.044C142.057 182.551 140.115 181.522 139.121 180.227C140.432 180.105 142.026 180.102 143.482 180.506C144.596 180.809 145.352 181.407 145.884 182.044Z" fill="#B93C36"/>
<path d="M122.964 206.153C122.964 206.153 134.147 214.549 140.076 216.485C140.076 216.485 142.821 211.306 141.695 207.045L150.163 212.945C150.163 212.945 151.804 218.332 150.163 223.797L140.076 218.033L130.531 225.001C130.531 225.001 116.426 220.916 115.613 212.347L122.964 206.153Z" fill="#4870C0"/>
<path d="M130.531 225.001C130.531 225.001 116.426 220.916 115.613 212.347L122.964 206.153C122.964 206.153 134.147 214.549 140.076 216.485C140.076 216.485 141.968 212.917 141.966 209.267C141.966 208.519 141.886 207.768 141.695 207.045L150.163 212.945C150.163 212.945 150.89 215.334 150.892 218.544C150.892 220.155 150.711 221.971 150.163 223.797L140.076 218.033L130.531 225.001Z" fill="#DBE8F7"/>
<path d="M307.463 293.729H153.16C152.163 293.729 151.355 292.92 151.355 291.922V287.38C151.355 286.382 152.163 285.574 153.16 285.574H307.463C308.461 285.574 309.269 286.382 309.269 287.38V291.922C309.269 292.92 308.461 293.729 307.463 293.729Z" fill="#4870C0"/>
<path d="M307.471 293.524H214.529C215.519 293.524 215.86 292.719 215.86 291.712V287.175C215.86 286.184 215.519 285.781 214.529 285.781H153.166C152.818 285.781 152.432 285.831 152.076 285.935C152.432 285.831 152.818 285.781 153.166 285.781H307.471C308.461 285.781 308.74 286.184 308.74 287.175V291.712C308.74 292.719 308.461 293.524 307.471 293.524Z" fill="#A1BCE6"/>
<path d="M151.801 293.111C151.259 292.779 150.844 292.278 150.844 291.712V287.175C150.844 286.528 151.406 286.131 152.076 285.935C151.638 286.265 151.355 286.79 151.355 287.38V291.921C151.355 292.377 151.522 292.793 151.801 293.111Z" fill="#BDC2CE"/>
<path d="M214.529 293.524H153.166C152.725 293.524 152.223 293.369 151.801 293.111C151.522 292.793 151.355 292.377 151.355 291.921V287.38C151.355 286.79 151.638 286.265 152.076 285.935C152.432 285.831 152.818 285.781 153.166 285.781H214.529C215.519 285.781 215.86 286.184 215.86 287.175V291.712C215.86 292.719 215.519 293.524 214.529 293.524Z" fill="#7A95D4"/>
<path d="M180.807 59.8997C176.247 43.1569 158.211 33.7016 141.588 40.0475C128.625 44.9966 120.762 58.7027 123.011 72.3979C124.748 82.9791 131.768 91.2204 140.709 95.0452C142.681 95.8892 144.3 97.3882 145.17 99.3486L146.187 101.634L174.677 93.8699L174.395 91.3923C174.149 89.2429 174.804 87.1183 176.084 85.3747C181.259 78.3211 183.281 68.9818 180.807 59.8997Z" fill="#4870C0"/>
<path d="M156.231 101.461C156.223 101.438 155.141 98.0401 153.096 93.8761C151.045 89.7136 148.053 84.7769 144.101 81.6628L143.623 82.2713L143.827 83.0193L148.028 81.8734C148.35 81.7851 148.581 81.5002 148.598 81.1657L148.812 76.9877L154.367 85.037C154.564 85.322 154.923 85.4412 155.251 85.3312C155.579 85.2197 155.793 84.9069 155.778 84.5616L155.36 75.481L160.555 83.9375C160.726 84.2178 161.062 84.3603 161.383 84.2875C161.705 84.2147 161.948 83.9438 161.983 83.617L162.612 77.8983L168.096 76.4039L167.894 75.656L167.208 75.2952C167.174 75.3649 164.183 81.0666 164.18 89.6099C164.18 92.5366 164.533 95.7947 165.479 99.2665C165.592 99.6784 166.016 99.9231 166.429 99.81C166.841 99.697 167.084 99.2727 166.973 98.8593C166.066 95.5315 165.728 92.4127 165.728 89.6099C165.728 85.5202 166.448 82.1056 167.165 79.7209C167.524 78.5285 167.881 77.5932 168.148 76.9614C168.281 76.6455 168.391 76.4039 168.466 76.2444L168.553 76.0679L168.578 76.0168C168.722 75.7443 168.689 75.4113 168.497 75.1713C168.304 74.9313 167.987 74.829 167.689 74.9096L161.697 76.5433C161.389 76.6269 161.165 76.8886 161.13 77.2061L160.691 81.2028L155.109 72.1145C154.923 71.8141 154.559 71.6762 154.222 71.78C153.884 71.8837 153.66 72.2027 153.675 72.5558L154.106 81.9338L148.793 74.2344C148.604 73.9603 148.264 73.838 147.945 73.9294C147.626 74.0192 147.4 74.3026 147.383 74.634L147.081 80.5261L143.42 81.525C143.138 81.6008 142.923 81.8315 142.864 82.118C142.807 82.4029 142.917 82.7003 143.146 82.8815C146.776 85.7246 149.719 90.5003 151.708 94.559C152.705 96.5891 153.468 98.438 153.982 99.776C154.239 100.446 154.434 100.987 154.564 101.36C154.692 101.733 154.756 101.93 154.756 101.932C154.886 102.339 155.321 102.563 155.728 102.433C156.135 102.305 156.361 101.868 156.231 101.461Z" fill="white"/>
<path d="M160.872 99.4385C155.828 100.814 153.016 106.61 154.588 112.387C156.163 118.165 161.527 121.733 166.57 120.359C171.613 118.984 174.426 113.186 172.852 107.409C171.279 101.633 165.915 98.0634 160.872 99.4385Z" fill="#252D32"/>
<path d="M170.593 115.045L160.445 117.812C155.411 119.184 150.171 116.44 148.427 111.522L145.098 102.127C144.819 101.34 145.268 100.482 146.073 100.262L174.079 92.628C174.884 92.4081 175.708 92.9207 175.866 93.7399L177.761 103.527C178.753 108.651 175.627 113.673 170.593 115.045Z" fill="#4870C0"/>
<path d="M157.819 118.163C153.694 118.163 149.867 115.585 148.428 111.522L145.098 102.127C145.04 101.967 145.014 101.805 145.014 101.645C145.016 101.018 145.432 100.437 146.073 100.262L174.079 92.628C174.206 92.5939 174.333 92.5769 174.459 92.5769C175.127 92.5769 175.733 93.0492 175.866 93.7398L177.761 103.527C177.884 104.166 177.945 104.806 177.945 105.436C177.943 109.087 175.926 112.454 172.736 114.187C172.07 114.548 171.353 114.839 170.593 115.045L160.445 117.812C159.669 118.022 158.889 118.137 158.116 118.16C158.017 118.163 157.918 118.163 157.819 118.163Z" fill="#8DADE0"/>
<path d="M112.735 89.5046C109.955 88.9982 107.133 88.735 104.322 88.7164C102.916 88.7226 101.512 88.7737 100.127 88.9456C99.438 89.0556 98.743 89.1345 98.0727 89.311C97.7383 89.3978 97.3916 89.4489 97.068 89.5681L96.0851 89.8825L94.9705 90.2386L95.6346 89.2646C97.5123 86.5067 99.0201 83.4375 100.079 80.2738C100.605 78.6896 101.008 77.0652 101.243 75.4269C101.354 74.6077 101.446 73.7854 101.467 72.9647C101.498 72.144 101.502 71.3202 101.427 70.5072C101.381 69.6911 101.241 68.8874 101.091 68.0899L100.8 66.9068L100.415 65.7563C100.116 65.0068 99.825 64.2465 99.4102 63.5512C99.0448 62.828 98.5727 62.1683 98.1176 61.5009C97.6006 60.8753 97.1331 60.2094 96.5386 59.6489L95.6841 58.7786L94.7538 57.9811C94.1578 57.4236 93.4519 56.9885 92.8033 56.4914C92.1268 56.0253 91.4101 55.6164 90.7166 55.1736L89.1067 54.1469L90.8219 53.3246C91.6454 52.9282 92.5123 52.445 93.3374 51.9588C94.1655 51.4602 94.9829 50.9414 95.7801 50.3917C97.3746 49.3 98.8931 48.0999 100.311 46.8022C101.02 46.1518 101.698 45.4751 102.356 44.7798C103.003 44.0752 103.622 43.3505 104.207 42.5995C104.779 41.8407 105.333 41.071 105.824 40.2643C106.31 39.459 106.799 38.6491 107.181 37.7943C107.602 36.9566 107.926 36.077 108.235 35.1975L108.635 33.8595L108.924 32.4953C109.067 31.5785 109.228 30.6587 109.229 29.7281C109.297 28.7989 109.229 27.8683 109.176 26.9376C109.05 26.0131 108.978 25.0793 108.74 24.1688L108.423 22.7968L107.991 21.448C107.738 20.5406 107.313 19.6811 106.972 18.7985C106.593 17.9282 106.132 17.0889 105.717 16.2325L103.508 11.6644L107.745 14.3913C108.492 14.8729 109.347 15.3669 110.18 15.8113C111.023 16.2604 111.876 16.6925 112.746 17.0873C114.481 17.8848 116.262 18.5786 118.074 19.1314C118.982 19.407 119.895 19.6533 120.814 19.8484C121.732 20.0481 122.658 20.2185 123.584 20.3129C124.508 20.4353 125.437 20.4817 126.356 20.4802C127.277 20.491 128.191 20.412 129.092 20.299L130.431 20.0636L131.737 19.7183C132.585 19.4256 133.424 19.1144 134.214 18.6916C134.626 18.5151 134.989 18.2518 135.37 18.0195C135.757 17.795 136.126 17.5426 136.468 17.2515C137.198 16.7296 137.824 16.0761 138.48 15.4567C139.061 14.7568 139.703 14.1126 140.197 13.329C140.746 12.5935 141.214 11.7944 141.66 10.9768C142.146 10.1871 142.469 9.292 142.884 8.45579C143.245 7.58551 143.55 6.68735 143.889 5.80623L145.833 0.731712L146.785 6.02924C146.926 6.81281 147.178 7.74038 147.449 8.58278C147.725 9.44376 148.048 10.2939 148.418 11.1177C149.149 12.7731 150.048 14.3511 151.135 15.7726C152.217 17.1973 153.476 18.4748 154.894 19.534C155.596 20.0714 156.35 20.539 157.129 20.9587C157.906 21.3845 158.728 21.7175 159.555 22.0411C160.403 22.309 161.251 22.58 162.134 22.741C163.004 22.9454 163.908 23.0291 164.802 23.1204C165.705 23.1731 166.609 23.2257 167.522 23.1746C168.432 23.1824 169.344 23.0569 170.257 22.9749C171.169 22.8773 172.076 22.6837 172.987 22.5444L175.693 21.9017L178.367 21.095L181.008 20.1503L184.688 18.8356L182.573 22.0984C182.199 22.6776 181.798 23.3651 181.446 24.0279C181.095 24.7015 180.761 25.3875 180.459 26.0859C179.847 27.4827 179.361 28.9274 179.016 30.3939C178.676 31.8619 178.485 33.3563 178.508 34.8351C178.532 36.314 178.773 37.7773 179.264 39.1524L179.677 40.1667L180.185 41.1377C180.576 41.7571 180.971 42.378 181.463 42.9309C181.909 43.5209 182.48 44.0133 183.018 44.5274C183.597 45.0059 184.169 45.4906 184.815 45.8932C185.425 46.3423 186.109 46.6907 186.77 47.0701C187.439 47.4402 188.157 47.7298 188.847 48.0658L191.016 48.8927L193.244 49.5849L194.846 50.0804L193.536 51.0839C192.696 51.7281 191.844 52.5101 191.084 53.3184C190.301 54.119 189.594 54.9909 188.933 55.8921C188.58 56.3288 188.301 56.8119 188.001 57.2811C187.682 57.7442 187.436 58.2428 187.188 58.7414C186.919 59.2323 186.69 59.7387 186.515 60.2652C186.326 60.787 186.092 61.2996 185.996 61.8462C185.885 62.3882 185.702 62.9209 185.646 63.4722L185.494 65.1307C185.49 65.685 185.556 66.2394 185.581 66.7953C185.578 67.359 185.728 67.8995 185.855 68.443C186.007 68.9803 186.046 69.5548 186.289 70.0659L186.923 71.633C187.098 72.1734 187.446 72.6318 187.72 73.1273L188.587 74.5953L188.903 75.1311L188.312 75.1342C186.046 75.1451 183.739 75.4362 181.532 76.0323C180.434 76.3498 179.344 76.7307 178.34 77.2882C178.081 77.4137 177.852 77.5871 177.604 77.7342C177.355 77.8798 177.126 78.0516 176.908 78.239C176.693 78.4295 176.44 78.5828 176.258 78.8073L175.666 79.4391L176.223 78.7748C176.397 78.5379 176.64 78.3722 176.847 78.1678C177.058 77.9665 177.281 77.7791 177.525 77.6196C177.765 77.457 177.991 77.2681 178.245 77.1272C179.236 76.5062 180.321 76.0587 181.423 75.6747C183.643 74.9329 185.959 74.5674 188.312 74.4544L188.036 74.9917L187.078 73.5129C186.773 73.0096 186.395 72.5466 186.186 71.9891L185.454 70.3694C185.179 69.8398 185.107 69.2343 184.925 68.6675C184.767 68.0915 184.587 67.5185 184.563 66.9177C184.508 66.3215 184.415 65.7253 184.398 65.126L184.49 63.3266C184.528 62.7258 184.697 62.1451 184.796 61.552C184.881 60.9527 185.104 60.3937 185.287 59.8223C185.457 59.2431 185.68 58.6872 185.948 58.1514C186.193 57.6032 186.439 57.0566 186.756 56.5487C187.056 56.033 187.34 55.5034 187.694 55.0234C188.354 54.0277 189.1 53.0939 189.906 52.2174C190.711 51.327 191.542 50.5109 192.518 49.7258L192.81 51.2248L190.467 50.5605L188.16 49.7444C187.412 49.4053 186.645 49.1157 185.914 48.7348C185.186 48.343 184.442 47.9837 183.754 47.5083C183.041 47.0825 182.383 46.5591 181.725 46.0388C181.101 45.4766 180.448 44.9316 179.912 44.2672C179.333 43.6432 178.85 42.934 178.378 42.2185L177.753 41.0927L177.237 39.9112C176.618 38.3069 176.296 36.5989 176.23 34.9017C176.16 33.2029 176.336 31.5151 176.675 29.8783C177.019 28.243 177.513 26.6496 178.14 25.115C178.449 24.3469 178.793 23.5943 179.158 22.851C179.538 22.1015 179.909 21.3969 180.398 20.6412L181.962 22.5893L179.208 23.5989L176.397 24.4707C175.446 24.7262 174.484 24.9446 173.525 25.1784C172.549 25.3395 171.581 25.5516 170.592 25.6662C169.601 25.7669 168.615 25.9062 167.61 25.9093C166.61 25.9713 165.604 25.9248 164.596 25.8722C163.592 25.7793 162.579 25.691 161.586 25.4696C160.582 25.2915 159.603 24.9942 158.626 24.6891C157.666 24.3268 156.714 23.9458 155.805 23.458C154.898 22.9795 154.017 22.4406 153.195 21.8243C151.538 20.6072 150.076 19.1438 148.833 17.5318C147.582 15.9213 146.562 14.159 145.731 12.3225C145.311 11.4042 144.946 10.4642 144.63 9.5057C144.313 8.53012 144.041 7.61183 143.833 6.51392L146.731 6.7369C146.375 7.69854 146.05 8.66795 145.664 9.62184C145.217 10.5541 144.867 11.5235 144.333 12.4232C143.841 13.3399 143.322 14.2427 142.698 15.0944C142.141 15.9848 141.403 16.7606 140.726 17.5736C139.966 18.3231 139.212 19.0818 138.333 19.7059C137.918 20.0481 137.474 20.3486 137.006 20.618C136.545 20.8952 136.101 21.2018 135.606 21.4155C134.649 21.9157 133.64 22.2858 132.623 22.6218L131.07 23.0182C130.548 23.1235 130.022 23.1963 129.497 23.283C128.448 23.4085 127.392 23.4859 126.345 23.4673C125.297 23.4611 124.252 23.3976 123.228 23.2567C122.195 23.1406 121.181 22.9439 120.178 22.7194C119.173 22.4979 118.186 22.2223 117.212 21.9188C115.262 21.3055 113.372 20.5499 111.536 19.6889C110.616 19.2615 109.715 18.7969 108.824 18.3122C107.926 17.8213 107.074 17.3258 106.172 16.7343L108.2 14.8931C108.644 15.8222 109.129 16.7296 109.534 17.6789C109.904 18.6452 110.35 19.5789 110.625 20.5855L111.087 22.0736L111.429 23.602C111.681 24.6148 111.763 25.6693 111.892 26.7053C111.946 27.7552 112.008 28.8051 111.927 29.8581C111.912 30.9111 111.728 31.9564 111.554 32.9908L111.214 34.5331L110.751 36.0399C110.396 37.0263 110.023 38.0096 109.546 38.9387C109.107 39.888 108.573 40.7861 108.008 41.6564C107.446 42.5313 106.82 43.3567 106.18 44.1666C105.526 44.9641 104.839 45.7306 104.125 46.4677C103.402 47.1971 102.661 47.9017 101.892 48.5737C100.351 49.9148 98.7213 51.1396 97.0185 52.2453C96.1687 52.8012 95.2987 53.3246 94.4163 53.8263C93.52 54.325 92.6454 54.7895 91.6702 55.2278L91.7754 53.3788C92.5061 53.8666 93.2569 54.3219 93.9689 54.8391C94.6578 55.3904 95.3947 55.8751 96.0324 56.4945L97.017 57.3849L97.9287 58.3558C98.5572 58.983 99.0619 59.7294 99.6068 60.4278C100.096 61.1773 100.593 61.9174 100.98 62.7258C101.415 63.5047 101.721 64.3518 102.028 65.1849L102.421 66.464L102.709 67.7678C102.854 68.6427 102.981 69.5254 103.011 70.4096C103.184 73.9527 102.43 77.4415 101.215 80.6764C100.607 82.2993 99.8777 83.868 99.051 85.3809C98.2198 86.8953 97.3235 88.3525 96.2724 89.7462L95.8219 89.1283L96.8699 88.8372C97.2166 88.7273 97.5758 88.687 97.9272 88.6111C98.6331 88.4563 99.3498 88.4021 100.06 88.3184C101.488 88.2023 102.915 88.1977 104.334 88.2643C107.172 88.4331 109.985 88.8511 112.735 89.5046Z" fill="#4870C0"/>
<path d="M94.9705 90.2386L95.6346 89.2646C97.5123 86.5067 99.0201 83.4375 100.079 80.2738C100.605 78.6896 101.008 77.0652 101.243 75.4269C101.354 74.6077 101.446 73.7854 101.467 72.9647C101.48 72.6302 101.488 72.2973 101.488 71.9644C101.488 71.4766 101.471 70.9903 101.427 70.5072C101.381 69.6911 101.241 68.8874 101.091 68.0899L100.8 66.9068L100.415 65.7563C100.116 65.0068 99.825 64.2465 99.4102 63.5512C99.0448 62.828 98.5727 62.1683 98.1176 61.5009C97.6006 60.8753 97.1331 60.2094 96.5386 59.6489L95.6841 58.7786L94.7538 57.9811C94.1578 57.4236 93.4519 56.9885 92.8033 56.4914C92.1268 56.0253 91.4101 55.6164 90.7166 55.1736L89.1067 54.1469L90.8219 53.3246C91.6454 52.9282 92.5123 52.445 93.3374 51.9588C94.1655 51.4602 94.9829 50.9414 95.7801 50.3917C97.3746 49.3 98.8931 48.0999 100.311 46.8022C101.02 46.1518 101.698 45.4751 102.356 44.7798C103.003 44.0752 103.622 43.3505 104.207 42.5995C104.779 41.8407 105.333 41.071 105.824 40.2643C106.31 39.459 106.799 38.6491 107.181 37.7943C107.602 36.9566 107.926 36.077 108.235 35.1975L108.635 33.8595L108.924 32.4953C109.067 31.5785 109.228 30.6587 109.229 29.7281C109.249 29.4509 109.257 29.1752 109.257 28.8996C109.259 28.2461 109.214 27.5911 109.176 26.9376C109.05 26.0131 108.978 25.0793 108.74 24.1688L108.423 22.7968L107.991 21.448C107.738 20.5406 107.313 19.6811 106.972 18.7985C106.593 17.9282 106.132 17.0889 105.717 16.2325L103.508 11.6644L107.745 14.3913C108.492 14.8729 109.347 15.3669 110.18 15.8113C111.023 16.2604 111.876 16.6925 112.746 17.0873C114.481 17.8848 116.262 18.5786 118.074 19.1314C118.982 19.407 119.895 19.6533 120.814 19.8484C121.732 20.0481 122.658 20.2185 123.584 20.3129C124.491 20.4322 125.403 20.4802 126.307 20.4802C126.324 20.4802 126.339 20.4802 126.356 20.4802C126.41 20.4802 126.466 20.4802 126.52 20.4802C127.387 20.4802 128.243 20.4058 129.092 20.299L130.431 20.0636L131.737 19.7183C132.585 19.4256 133.424 19.1144 134.214 18.6916C134.626 18.5151 134.989 18.2518 135.37 18.0195C135.757 17.795 136.126 17.5426 136.468 17.2515C137.198 16.7296 137.824 16.0761 138.48 15.4567C139.061 14.7568 139.703 14.1126 140.197 13.329C140.746 12.5935 141.214 11.7944 141.66 10.9768C142.146 10.1871 142.469 9.292 142.884 8.45579C143.245 7.58551 143.55 6.68735 143.889 5.80623L145.833 0.731712L146.785 6.02924C146.926 6.81281 147.178 7.74038 147.449 8.58278C147.725 9.44376 148.048 10.2939 148.418 11.1177C149.149 12.7731 150.048 14.3511 151.135 15.7726C152.217 17.1973 153.476 18.4748 154.894 19.534C155.596 20.0714 156.35 20.539 157.129 20.9587C157.906 21.3845 158.728 21.7175 159.555 22.0411C160.403 22.309 161.251 22.58 162.134 22.741C163.004 22.9454 163.908 23.0291 164.802 23.1204C165.445 23.1576 166.089 23.1963 166.736 23.1963C166.997 23.1963 167.259 23.1901 167.522 23.1746C167.55 23.1746 167.578 23.1746 167.606 23.1746C168.488 23.1746 169.372 23.0554 170.257 22.9749C171.169 22.8773 172.076 22.6837 172.987 22.5444L175.693 21.9017L178.367 21.095L181.008 20.1503L184.688 18.8356L182.573 22.0984C182.199 22.6776 181.798 23.3651 181.446 24.0279C181.095 24.7015 180.761 25.3875 180.459 26.0859C179.847 27.4827 179.361 28.9274 179.016 30.3939C178.694 31.7814 178.507 33.1921 178.507 34.592C178.507 34.6741 178.507 34.7546 178.508 34.8351C178.532 36.314 178.773 37.7773 179.264 39.1524L179.677 40.1667L180.185 41.1377C180.576 41.7571 180.971 42.378 181.463 42.9309C181.909 43.5209 182.48 44.0133 183.018 44.5274C183.597 45.0059 184.169 45.4906 184.815 45.8932C185.425 46.3423 186.109 46.6907 186.77 47.0701C187.439 47.4402 188.157 47.7298 188.847 48.0658L191.016 48.8927L193.244 49.5849L194.846 50.0804L193.536 51.0839C192.696 51.7281 191.844 52.5101 191.084 53.3184C190.301 54.119 189.594 54.9909 188.933 55.8921C188.58 56.3288 188.301 56.8119 188.001 57.2811C187.682 57.7442 187.436 58.2428 187.188 58.7414C186.919 59.2323 186.69 59.7387 186.515 60.2652C186.326 60.787 186.092 61.2996 185.996 61.8462C185.885 62.3882 185.702 62.9209 185.646 63.4722L185.494 65.1307C185.494 65.1492 185.494 65.1663 185.494 65.1833C185.493 65.7207 185.558 66.2564 185.581 66.7953C185.581 66.8015 185.581 66.8046 185.581 66.8093C185.581 67.3668 185.73 67.9026 185.855 68.443C186.007 68.9803 186.046 69.5548 186.289 70.0659L186.923 71.633C187.098 72.1734 187.446 72.6318 187.72 73.1273L188.587 74.5953L188.903 75.1311L188.312 75.1342C186.046 75.1451 183.739 75.4362 181.532 76.0323C180.434 76.3498 179.344 76.7307 178.34 77.2882C178.081 77.4137 177.852 77.5871 177.604 77.7342C177.355 77.8798 177.126 78.0516 176.908 78.239C176.693 78.4295 176.44 78.5828 176.258 78.8073L175.666 79.4391L176.223 78.7748C176.397 78.5379 176.64 78.3722 176.847 78.1678C177.058 77.9665 177.281 77.7791 177.525 77.6196C177.765 77.457 177.991 77.2681 178.245 77.1272C179.236 76.5062 180.321 76.0587 181.423 75.6747C183.454 74.9964 185.564 74.6325 187.71 74.4885L187.078 73.5129C186.773 73.0096 186.395 72.5466 186.186 71.9891L185.922 71.4053L185.454 70.3694C185.179 69.8398 185.107 69.2343 184.925 68.6675C184.767 68.0915 184.587 67.5185 184.563 66.9177C184.508 66.3215 184.415 65.7253 184.398 65.126L184.49 63.3266C184.528 62.7258 184.697 62.1451 184.796 61.552C184.881 60.9527 185.104 60.3937 185.287 59.8223C185.457 59.2431 185.68 58.6872 185.948 58.1514C186.193 57.6032 186.439 57.0566 186.756 56.5487C187.056 56.033 187.34 55.5034 187.694 55.0234C188.354 54.0277 189.1 53.0939 189.906 52.2174C190.354 51.7219 190.809 51.2511 191.293 50.7943L190.467 50.5605L188.16 49.7444C187.412 49.4053 186.645 49.1157 185.914 48.7348C185.186 48.343 184.442 47.9837 183.754 47.5083C183.041 47.0825 182.383 46.5591 181.725 46.0388C181.101 45.4766 180.448 44.9316 179.912 44.2672C179.467 43.7872 179.078 43.2576 178.708 42.7125C178.597 42.5484 178.488 42.3842 178.378 42.2185L177.765 41.1129L177.753 41.0927L177.237 39.9112C176.618 38.3069 176.296 36.5989 176.23 34.9017C176.219 34.6632 176.214 34.4247 176.214 34.1863C176.213 32.7291 176.384 31.2843 176.675 29.8783C177.019 28.243 177.513 26.6496 178.14 25.115C178.326 24.655 178.524 24.1982 178.731 23.7476L176.397 24.4707C175.446 24.7262 174.484 24.9446 173.525 25.1784C172.549 25.3395 171.581 25.5516 170.592 25.6662C169.601 25.7669 168.615 25.9062 167.61 25.9093C167.271 25.931 166.931 25.9387 166.59 25.9387C165.926 25.9387 165.262 25.9062 164.596 25.8722C163.592 25.7793 162.579 25.691 161.586 25.4696C160.582 25.2915 159.603 24.9942 158.626 24.6891C157.666 24.3268 156.714 23.9458 155.805 23.458C154.898 22.9795 154.017 22.4406 153.195 21.8243C151.538 20.6072 150.076 19.1438 148.833 17.5318C147.582 15.9213 146.562 14.159 145.731 12.3225C145.51 11.8378 145.304 11.3484 145.112 10.8529C144.876 11.3856 144.635 11.9152 144.333 12.4232C143.841 13.3399 143.322 14.2427 142.698 15.0944C142.141 15.9848 141.403 16.7606 140.726 17.5736C139.966 18.3231 139.212 19.0818 138.333 19.7059C137.918 20.0481 137.474 20.3486 137.006 20.618C136.545 20.8952 136.101 21.2018 135.606 21.4155C134.649 21.9157 133.64 22.2858 132.623 22.6218L131.07 23.0182C130.548 23.1235 130.022 23.1963 129.497 23.283C128.553 23.3976 127.604 23.4704 126.66 23.4704C126.554 23.4704 126.449 23.4704 126.345 23.4673C125.297 23.4611 124.252 23.3976 123.228 23.2567C122.195 23.1406 121.181 22.9439 120.178 22.7194C119.173 22.4979 118.186 22.2223 117.212 21.9188C115.262 21.3055 113.372 20.5499 111.536 19.6889C111.036 19.4566 110.542 19.2135 110.053 18.9626C110.268 19.4938 110.472 20.028 110.625 20.5855L111.087 22.0736L111.429 23.602C111.681 24.6148 111.763 25.6693 111.892 26.7053C111.927 27.3944 111.966 28.0835 111.966 28.7741C111.966 29.1349 111.955 29.4957 111.927 29.8581C111.912 30.9111 111.728 31.9564 111.554 32.9908L111.214 34.5331L110.751 36.0399C110.396 37.0263 110.023 38.0096 109.546 38.9387C109.107 39.888 108.573 40.7861 108.008 41.6564C107.446 42.5313 106.82 43.3567 106.18 44.1666C105.526 44.9641 104.839 45.7306 104.125 46.4677C103.402 47.1971 102.661 47.9017 101.892 48.5737C101.879 48.5846 101.867 48.5954 101.854 48.6062C100.325 49.9349 98.7074 51.1489 97.0185 52.2453C96.5711 52.538 96.1191 52.8214 95.6625 53.097C95.2491 53.3463 94.8343 53.5894 94.4163 53.8263C94.0587 54.0246 93.7042 54.2181 93.3466 54.407C93.5556 54.548 93.7646 54.6904 93.9689 54.8391C94.6578 55.3904 95.3947 55.8751 96.0324 56.4945L97.017 57.3849L97.9287 58.3558C98.5572 58.983 99.0619 59.7294 99.6068 60.4278C100.096 61.1773 100.593 61.9174 100.98 62.7258C101.415 63.5047 101.721 64.3518 102.028 65.1849L102.421 66.464L102.709 67.7678C102.854 68.6427 102.981 69.5254 103.011 70.4096C103.028 70.741 103.036 71.0739 103.036 71.4038C103.036 71.8126 103.025 72.2198 103.002 72.6256C102.885 74.7409 102.467 76.819 101.85 78.8197C101.656 79.4469 101.444 80.0663 101.215 80.6764C100.607 82.2993 99.8777 83.868 99.051 85.3809C98.404 86.5609 97.7167 87.7068 96.9473 88.8124C97.2693 88.7211 97.6021 88.6808 97.9272 88.6111C98.6331 88.4563 99.3498 88.4021 100.06 88.3184C100.893 88.2519 101.724 88.2209 102.556 88.2209C103.15 88.2209 103.743 88.2364 104.334 88.2643C107.172 88.4331 109.985 88.8511 112.735 89.5046C109.955 88.9982 107.133 88.735 104.322 88.7164C103.497 88.7211 102.673 88.7396 101.854 88.7877C101.276 88.8233 100.7 88.8744 100.127 88.9456C99.438 89.0556 98.743 89.1345 98.0727 89.311C97.7383 89.3978 97.3916 89.4489 97.068 89.5681L96.0851 89.8825L95.6625 90.0187L94.9705 90.2386Z" fill="#C7D9F2"/>
</svg>
