<svg width="135" height="87" viewBox="0 0 135 87" fill="none" xmlns="http://www.w3.org/2000/svg">
<path d="M3.05603 5.28785H88.7789C97.9151 5.28785 105.39 12.7289 105.39 21.824C105.39 30.9201 97.9151 38.3612 88.7789 38.3612H3.11744" stroke="#A8DADC" stroke-width="6" stroke-miterlimit="10" stroke-linecap="round"/>
<path fill-rule="evenodd" clip-rule="evenodd" d="M6.7074 33.0463H89.5745C95.0846 33.0463 99.5938 28.5574 99.5938 23.0711V20.577C99.5938 15.0916 95.0846 10.6027 89.5745 10.6027H6.7074V13.0778H93.8773C94.4879 13.0778 94.9829 13.5728 94.9829 14.1835C94.9829 14.7941 94.4879 15.2891 93.8773 15.2891H6.7074V20.7184H93.8773C94.4879 20.7184 94.9829 21.2135 94.9829 21.8241C94.9829 22.4347 94.4879 22.9298 93.8773 22.9298H6.7074V28.3589H93.8773C94.4879 28.3589 94.9829 28.854 94.9829 29.4646C94.9829 30.0752 94.4879 30.5703 93.8773 30.5703H6.7074V33.0463Z" fill="#A8DADC"/>
<path fill-rule="evenodd" clip-rule="evenodd" d="M130.34 87H117.812C115.249 87 113.152 84.9048 113.152 82.3428V4.65786C113.152 2.09586 115.249 -7.62939e-06 117.812 -7.62939e-06H130.34C132.904 -7.62939e-06 135 2.09586 135 4.65786V82.3428C135 84.9048 132.904 87 130.34 87ZM129.764 17.2188H119.298C118.421 17.2188 117.703 16.3671 117.703 15.3263V14.5799C117.703 13.5391 118.421 12.6875 119.298 12.6875H129.764C130.641 12.6875 131.359 13.5391 131.359 14.5799V15.3263C131.359 16.3671 130.641 17.2188 129.764 17.2188ZM119.298 24.4688H129.764C130.641 24.4688 131.359 23.6171 131.359 22.5763V21.8299C131.359 20.7891 130.641 19.9375 129.764 19.9375H119.298C118.421 19.9375 117.703 20.7891 117.703 21.8299V22.5763C117.703 23.6171 118.421 24.4688 119.298 24.4688Z" fill="#A8DADC"/>
<path d="M10.6413 64.7397C10.6413 62.8411 10.9186 61.1664 11.4733 59.7157C12.0493 58.2651 12.8173 57.0597 13.7773 56.0997C14.7586 55.1184 15.8893 54.3824 17.1693 53.8917C18.4706 53.4011 19.8466 53.1557 21.2973 53.1557C22.7266 53.1557 24.0706 53.4011 25.3293 53.8917C26.6093 54.3824 27.7293 55.1184 28.6893 56.0997C29.6493 57.0597 30.4066 58.2651 30.9613 59.7157C31.5373 61.1664 31.8253 62.8411 31.8253 64.7397C31.8253 66.4037 31.6119 67.8864 31.1853 69.1877C30.7586 70.4891 30.1613 71.6197 29.3933 72.5797C28.6466 73.5184 27.7613 74.2864 26.7373 74.8837C25.7346 75.4597 24.6573 75.8544 23.5053 76.0678C23.5266 76.5584 23.7399 76.9851 24.1453 77.3478C24.5719 77.7318 25.1053 78.0518 25.7453 78.3078C26.3853 78.5638 27.0999 78.7771 27.8893 78.9478C28.6786 79.1184 29.4679 79.2464 30.2573 79.3318L29.5213 81.7638C28.4119 81.6144 27.3453 81.4118 26.3213 81.1558C25.3186 80.9211 24.4013 80.6011 23.5693 80.1958C22.7586 79.7904 22.0759 79.2678 21.5213 78.6278C20.9666 78.0091 20.5933 77.2304 20.4013 76.2918C19.0573 76.2064 17.7879 75.8971 16.5933 75.3637C15.3986 74.8091 14.3639 74.0517 13.4893 73.0917C12.6146 72.1104 11.9213 70.9264 11.4093 69.5397C10.8973 68.1531 10.6413 66.5531 10.6413 64.7397ZM13.9053 64.7397C13.9053 66.0837 14.0759 67.3104 14.4173 68.4197C14.7586 69.5077 15.2386 70.4357 15.8573 71.2037C16.4973 71.9717 17.2653 72.5691 18.1613 72.9957C19.0786 73.4011 20.1026 73.6037 21.2333 73.6037C22.3639 73.6037 23.3773 73.4011 24.2733 72.9957C25.1693 72.5691 25.9266 71.9717 26.5453 71.2037C27.1853 70.4357 27.6759 69.5077 28.0173 68.4197C28.3586 67.3104 28.5293 66.0837 28.5293 64.7397C28.5293 63.3957 28.3586 62.1797 28.0173 61.0917C27.6759 59.9824 27.1853 59.0437 26.5453 58.2757C25.9266 57.5077 25.1693 56.9211 24.2733 56.5157C23.3773 56.0891 22.3639 55.8757 21.2333 55.8757C20.1026 55.8757 19.0786 56.0891 18.1613 56.5157C17.2653 56.9211 16.4973 57.5077 15.8573 58.2757C15.2386 59.0437 14.7586 59.9824 14.4173 61.0917C14.0759 62.1797 13.9053 63.3957 13.9053 64.7397ZM49.4995 75.3637C48.8169 75.5344 47.9102 75.7157 46.7795 75.9078C45.6702 76.0998 44.3795 76.1958 42.9075 76.1958C41.6275 76.1958 40.5502 76.0144 39.6755 75.6517C38.8009 75.2677 38.0969 74.7344 37.5635 74.0517C37.0302 73.3691 36.6462 72.5691 36.4115 71.6517C36.1769 70.7131 36.0595 69.6784 36.0595 68.5477V59.2037H39.0355V67.9077C39.0355 69.9344 39.3555 71.3851 39.9955 72.2597C40.6355 73.1344 41.7129 73.5717 43.2275 73.5717C43.5475 73.5717 43.8782 73.5611 44.2195 73.5397C44.5609 73.5184 44.8809 73.4971 45.1795 73.4757C45.4782 73.4331 45.7449 73.4011 45.9795 73.3797C46.2355 73.3371 46.4169 73.2944 46.5235 73.2517V59.2037H49.4995V75.3637ZM57.6025 75.8438H54.6265V59.2037H57.6025V75.8438ZM56.0985 56.1957C55.5652 56.1957 55.1065 56.0251 54.7225 55.6837C54.3599 55.3211 54.1785 54.8411 54.1785 54.2437C54.1785 53.6464 54.3599 53.1771 54.7225 52.8357C55.1065 52.4731 55.5652 52.2917 56.0985 52.2917C56.6319 52.2917 57.0799 52.4731 57.4425 52.8357C57.8265 53.1771 58.0185 53.6464 58.0185 54.2437C58.0185 54.8411 57.8265 55.3211 57.4425 55.6837C57.0799 56.0251 56.6319 56.1957 56.0985 56.1957ZM73.7603 61.4437C73.3123 61.9344 72.7149 62.6277 71.9683 63.5237C71.2429 64.4197 70.4536 65.4117 69.6003 66.4997C68.7683 67.5877 67.9256 68.7291 67.0723 69.9237C66.2403 71.1184 65.5043 72.2597 64.8643 73.3477H74.0163V75.8438H61.3123V73.8597C61.8243 72.9211 62.4536 71.8864 63.2003 70.7557C63.9469 69.6251 64.7256 68.5051 65.5363 67.3958C66.3683 66.2651 67.1683 65.2091 67.9363 64.2277C68.7256 63.2251 69.4083 62.3824 69.9843 61.6997H61.7603V59.2037H73.7603V61.4437ZM77.9748 53.6677H81.0788V75.8438H77.9748V53.6677ZM89.1605 59.2037H95.4645V61.6997H89.1605V69.3797C89.1605 70.2117 89.2245 70.9051 89.3525 71.4597C89.4805 71.9931 89.6725 72.4197 89.9285 72.7397C90.1845 73.0384 90.5045 73.2517 90.8885 73.3797C91.2725 73.5077 91.7205 73.5717 92.2325 73.5717C93.1285 73.5717 93.8432 73.4757 94.3765 73.2837C94.9312 73.0704 95.3152 72.9211 95.5285 72.8357L96.1045 75.2997C95.8059 75.4491 95.2832 75.6304 94.5365 75.8438C93.7899 76.0784 92.9365 76.1958 91.9765 76.1958C90.8459 76.1958 89.9072 76.0571 89.1605 75.7797C88.4352 75.4811 87.8485 75.0437 87.4005 74.4677C86.9525 73.8917 86.6325 73.1877 86.4405 72.3557C86.2699 71.5024 86.1845 70.5211 86.1845 69.4117V54.5637L89.1605 54.0517V59.2037Z" fill="#A8DADC"/>
</svg>
