<svg width="135" height="87" viewBox="0 0 135 87" fill="none" xmlns="http://www.w3.org/2000/svg">
<path d="M3.05603 5.28791H88.7789C97.9151 5.28791 105.39 12.729 105.39 21.8241C105.39 30.9202 97.9151 38.3613 88.7789 38.3613H3.11744" stroke="#1D3557" stroke-width="6" stroke-miterlimit="10" stroke-linecap="round"/>
<path fill-rule="evenodd" clip-rule="evenodd" d="M6.7074 33.0463H89.5745C95.0846 33.0463 99.5938 28.5574 99.5938 23.0711V20.577C99.5938 15.0917 95.0846 10.6028 89.5745 10.6028H6.7074V13.0778H93.8773C94.4879 13.0778 94.9829 13.5728 94.9829 14.1835C94.9829 14.7941 94.4879 15.2891 93.8773 15.2891H6.7074V20.7184H93.8773C94.4879 20.7184 94.9829 21.2135 94.9829 21.8241C94.9829 22.4347 94.4879 22.9298 93.8773 22.9298H6.7074V28.3589H93.8773C94.4879 28.3589 94.9829 28.854 94.9829 29.4646C94.9829 30.0752 94.4879 30.5703 93.8773 30.5703H6.7074V33.0463Z" fill="#1D3557"/>
<path fill-rule="evenodd" clip-rule="evenodd" d="M130.34 87H117.812C115.249 87 113.152 84.9048 113.152 82.3428V4.65786C113.152 2.09586 115.249 -7.62939e-06 117.812 -7.62939e-06H130.34C132.904 -7.62939e-06 135 2.09586 135 4.65786V82.3428C135 84.9048 132.904 87 130.34 87ZM129.764 17.2188H119.298C118.421 17.2188 117.703 16.3671 117.703 15.3263V14.5799C117.703 13.5391 118.421 12.6875 119.298 12.6875H129.764C130.641 12.6875 131.359 13.5391 131.359 14.5799V15.3263C131.359 16.3671 130.641 17.2188 129.764 17.2188ZM119.298 24.4688H129.764C130.641 24.4688 131.359 23.6171 131.359 22.5763V21.8299C131.359 20.7891 130.641 19.9375 129.764 19.9375H119.298C118.421 19.9375 117.703 20.7891 117.703 21.8299V22.5763C117.703 23.6171 118.421 24.4688 119.298 24.4688Z" fill="#1D3557"/>
<path d="M10.6413 64.7398C10.6413 62.8411 10.9186 61.1665 11.4733 59.7158C12.0493 58.2651 12.8173 57.0598 13.7773 56.0998C14.7586 55.1185 15.8893 54.3825 17.1693 53.8918C18.4706 53.4011 19.8466 53.1558 21.2973 53.1558C22.7266 53.1558 24.0706 53.4011 25.3293 53.8918C26.6093 54.3825 27.7293 55.1185 28.6893 56.0998C29.6493 57.0598 30.4066 58.2651 30.9613 59.7158C31.5373 61.1665 31.8253 62.8411 31.8253 64.7398C31.8253 66.4038 31.6119 67.8865 31.1853 69.1878C30.7586 70.4891 30.1613 71.6198 29.3933 72.5798C28.6466 73.5185 27.7613 74.2865 26.7373 74.8838C25.7346 75.4598 24.6573 75.8545 23.5053 76.0678C23.5266 76.5585 23.7399 76.9851 24.1453 77.3478C24.5719 77.7318 25.1053 78.0518 25.7453 78.3078C26.3853 78.5638 27.0999 78.7771 27.8893 78.9478C28.6786 79.1185 29.4679 79.2465 30.2573 79.3318L29.5213 81.7638C28.4119 81.6145 27.3453 81.4118 26.3213 81.1558C25.3186 80.9211 24.4013 80.6011 23.5693 80.1958C22.7586 79.7905 22.0759 79.2678 21.5213 78.6278C20.9666 78.0091 20.5933 77.2305 20.4013 76.2918C19.0573 76.2065 17.7879 75.8971 16.5933 75.3638C15.3986 74.8091 14.3639 74.0518 13.4893 73.0918C12.6146 72.1105 11.9213 70.9265 11.4093 69.5398C10.8973 68.1531 10.6413 66.5531 10.6413 64.7398ZM13.9053 64.7398C13.9053 66.0838 14.0759 67.3105 14.4173 68.4198C14.7586 69.5078 15.2386 70.4358 15.8573 71.2038C16.4973 71.9718 17.2653 72.5691 18.1613 72.9958C19.0786 73.4011 20.1026 73.6038 21.2333 73.6038C22.3639 73.6038 23.3773 73.4011 24.2733 72.9958C25.1693 72.5691 25.9266 71.9718 26.5453 71.2038C27.1853 70.4358 27.6759 69.5078 28.0173 68.4198C28.3586 67.3105 28.5293 66.0838 28.5293 64.7398C28.5293 63.3958 28.3586 62.1798 28.0173 61.0918C27.6759 59.9825 27.1853 59.0438 26.5453 58.2758C25.9266 57.5078 25.1693 56.9211 24.2733 56.5158C23.3773 56.0891 22.3639 55.8758 21.2333 55.8758C20.1026 55.8758 19.0786 56.0891 18.1613 56.5158C17.2653 56.9211 16.4973 57.5078 15.8573 58.2758C15.2386 59.0438 14.7586 59.9825 14.4173 61.0918C14.0759 62.1798 13.9053 63.3958 13.9053 64.7398ZM49.4995 75.3638C48.8169 75.5345 47.9102 75.7158 46.7795 75.9078C45.6702 76.0998 44.3795 76.1958 42.9075 76.1958C41.6275 76.1958 40.5502 76.0145 39.6755 75.6518C38.8009 75.2678 38.0969 74.7345 37.5635 74.0518C37.0302 73.3691 36.6462 72.5691 36.4115 71.6518C36.1769 70.7131 36.0595 69.6785 36.0595 68.5478V59.2038H39.0355V67.9078C39.0355 69.9345 39.3555 71.3851 39.9955 72.2598C40.6355 73.1345 41.7129 73.5718 43.2275 73.5718C43.5475 73.5718 43.8782 73.5611 44.2195 73.5398C44.5609 73.5185 44.8809 73.4971 45.1795 73.4758C45.4782 73.4331 45.7449 73.4011 45.9795 73.3798C46.2355 73.3371 46.4169 73.2945 46.5235 73.2518V59.2038H49.4995V75.3638ZM57.6025 75.8438H54.6265V59.2038H57.6025V75.8438ZM56.0985 56.1958C55.5652 56.1958 55.1065 56.0251 54.7225 55.6838C54.3599 55.3211 54.1785 54.8411 54.1785 54.2438C54.1785 53.6465 54.3599 53.1771 54.7225 52.8358C55.1065 52.4731 55.5652 52.2918 56.0985 52.2918C56.6319 52.2918 57.0799 52.4731 57.4425 52.8358C57.8265 53.1771 58.0185 53.6465 58.0185 54.2438C58.0185 54.8411 57.8265 55.3211 57.4425 55.6838C57.0799 56.0251 56.6319 56.1958 56.0985 56.1958ZM73.7603 61.4438C73.3123 61.9345 72.7149 62.6278 71.9683 63.5238C71.2429 64.4198 70.4536 65.4118 69.6003 66.4998C68.7683 67.5878 67.9256 68.7291 67.0723 69.9238C66.2403 71.1185 65.5043 72.2598 64.8643 73.3478H74.0163V75.8438H61.3123V73.8598C61.8243 72.9211 62.4536 71.8865 63.2003 70.7558C63.9469 69.6251 64.7256 68.5051 65.5363 67.3958C66.3683 66.2651 67.1683 65.2091 67.9363 64.2278C68.7256 63.2251 69.4083 62.3825 69.9843 61.6998H61.7603V59.2038H73.7603V61.4438ZM77.9748 53.6678H81.0788V75.8438H77.9748V53.6678ZM89.1605 59.2038H95.4645V61.6998H89.1605V69.3798C89.1605 70.2118 89.2245 70.9051 89.3525 71.4598C89.4805 71.9931 89.6725 72.4198 89.9285 72.7398C90.1845 73.0385 90.5045 73.2518 90.8885 73.3798C91.2725 73.5078 91.7205 73.5718 92.2325 73.5718C93.1285 73.5718 93.8432 73.4758 94.3765 73.2838C94.9312 73.0705 95.3152 72.9211 95.5285 72.8358L96.1045 75.2998C95.8059 75.4491 95.2832 75.6305 94.5365 75.8438C93.7899 76.0785 92.9365 76.1958 91.9765 76.1958C90.8459 76.1958 89.9072 76.0571 89.1605 75.7798C88.4352 75.4811 87.8485 75.0438 87.4005 74.4678C86.9525 73.8918 86.6325 73.1878 86.4405 72.3558C86.2699 71.5025 86.1845 70.5211 86.1845 69.4118V54.5638L89.1605 54.0518V59.2038Z" fill="#1D3557"/>
</svg>
