<svg  viewBox="0 0 343 349" fill="none" xmlns="http://www.w3.org/2000/svg">
<path d="M126.166 5.13037C126.045 5.13037 125.923 5.10288 125.81 5.04415C125.73 5.00417 125.651 4.96419 125.571 4.92545C126.015 4.818 126.463 4.71054 126.91 4.60684C126.899 4.63808 126.885 4.66807 126.87 4.69806C126.853 4.73304 126.833 4.76552 126.811 4.7955C126.661 5.00916 126.417 5.13037 126.166 5.13037Z" fill="url(#paint0_linear)"/>
<path d="M236.225 346.376C236.155 346.376 236.085 346.375 236.015 346.372L232.577 346.246C230.99 346.186 229.474 345.49 228.295 344.407C226.893 343.117 225.967 341.279 225.967 339.308V171.136L242.242 169.761V262.943C209.83 299.714 235.651 339.794 239.378 345.163C239.419 345.223 239.466 345.28 239.515 345.334C238.568 345.975 237.446 346.376 236.225 346.376ZM242.083 341.431C241.566 338.077 241.264 333.18 242.242 327.286V339.896C242.242 340.423 242.188 340.938 242.083 341.431ZM225.967 133.579V124.261L242.242 122.911V132.203L225.967 133.579ZM225.967 86.9889V72.841L242.242 75.3587V85.6382L225.967 86.9889ZM242.242 36.4836L225.967 33.9647V26.7926L242.242 26.2616V36.4836Z" fill="url(#paint1_linear)"/>
<path d="M248.787 15.01C248.787 20.3028 246.096 25.0396 242.041 27.8272C239.76 29.3965 237.048 30.3461 234.145 30.4323C232.705 30.4748 231.31 30.3049 229.998 29.9438C229.009 29.6739 228.066 29.2978 227.177 28.8267C226.953 28.7043 226.728 28.5831 226.508 28.4469C222.362 25.9517 219.605 21.3411 219.605 15.9846C219.605 7.75924 226.105 0.857103 234.145 0.559729C242.217 0.262352 248.787 6.72841 248.787 15.01Z" fill="url(#paint2_linear)"/>
<path d="M242.084 14.4665C242.084 18.581 239.991 22.2657 236.839 24.4311C235.065 25.6518 232.957 26.3903 230.7 26.4577C229.581 26.4915 228.496 26.359 227.476 26.0779C226.706 25.868 225.974 25.5743 225.282 25.2095C225.108 25.1145 224.933 25.0196 224.763 24.9134C221.539 22.9742 219.395 19.3894 219.395 15.2236C219.395 8.83005 224.449 3.46354 230.7 3.23238C236.976 3.00123 242.084 8.02789 242.084 14.4665Z" fill="url(#paint3_linear)"/>
<path d="M275.363 80.479C275.339 80.479 275.314 80.4777 275.29 80.474L260.38 78.1662L242.242 75.3586L225.967 72.8409L144.365 60.2111C144.04 60.1612 143.741 60.0038 143.509 59.7626L138.423 54.4423L137.316 53.2853L124.852 40.2494C124.608 39.9933 124.479 39.6397 124.5 39.2761L124.602 37.4693L124.715 37.5281C124.72 37.5681 124.737 37.6055 124.767 37.6368L144.282 57.3823C144.551 57.656 144.896 57.8334 145.27 57.8909L276.213 78.1562C276.22 78.1575 276.227 78.1575 276.233 78.1575C276.313 78.1575 276.373 78.0862 276.372 78.01L276.518 78.2037L275.828 80.1404C275.754 80.3453 275.567 80.479 275.363 80.479ZM263.819 58.162L263.161 57.1237C262.995 56.8613 263.062 56.5064 263.313 56.324L281.574 42.9771L280.739 45.6147C280.716 45.6734 280.089 46.1645 279.079 46.9279C275.55 49.5943 267.347 55.5881 263.819 58.162Z" fill="url(#paint4_linear)"/>
<path d="M276.233 78.1572C276.227 78.1572 276.219 78.1572 276.213 78.156L145.27 57.8907C144.896 57.8332 144.551 57.6558 144.282 57.3821L124.766 37.6366C124.736 37.6053 124.72 37.5679 124.715 37.5279C124.709 37.4592 124.739 37.3867 124.804 37.3479L149.656 22.5703C149.936 22.4029 150.251 22.3167 150.569 22.3167C150.658 22.3167 150.747 22.3242 150.835 22.3379L225.967 33.9643L242.242 36.4833L272.193 41.1189L281.696 42.5895C281.817 42.6083 281.854 42.7732 281.751 42.8469L281.573 42.9769L263.312 56.3238C263.062 56.5062 262.995 56.8611 263.161 57.1235L263.819 58.1618L276.348 77.9348C276.364 77.9585 276.371 77.9848 276.372 78.0098C276.373 78.086 276.313 78.1572 276.233 78.1572ZM154.161 42.9244C153.93 42.9244 153.725 43.0931 153.687 43.3292L153.238 46.1743C153.197 46.4342 153.377 46.6803 153.637 46.7215L216.792 56.6774C216.817 56.6812 216.841 56.6837 216.866 56.6837C217.097 56.6837 217.303 56.5137 217.34 56.2788L217.789 53.4338C217.83 53.1739 217.651 52.9277 217.39 52.8865L154.236 42.9306C154.211 42.9269 154.186 42.9244 154.161 42.9244ZM156.087 32.2063C155.856 32.2063 155.651 32.375 155.614 32.6099L155.132 35.6624C155.09 35.9223 155.27 36.1684 155.531 36.2097L219.195 46.2455C219.22 46.2492 219.245 46.2517 219.269 46.2517C219.5 46.2517 219.705 46.0818 219.743 45.8469L220.224 42.7957C220.265 42.5358 220.087 42.2884 219.826 42.2472L156.162 32.2113C156.137 32.2076 156.112 32.2063 156.087 32.2063Z" fill="url(#paint5_linear)"/>
<path d="M135.985 159.726L137.312 160.051L156.332 140.891L269.713 130.514L284.845 128.626C285.159 128.586 285.433 128.841 285.417 129.157L285.286 131.629C285.238 131.966 270.858 148.919 270.858 148.919L288.736 163.453L288.529 165.445C288.504 165.682 288.323 165.866 288.098 165.885L273.493 167.119L159.86 176.725C159.542 176.751 159.224 176.671 158.95 176.495L136.859 162.301C136.569 162.115 136.368 161.809 136.304 161.46L135.985 159.726Z" fill="#7D97F4"/>
<path d="M157.275 139.386L285.068 128.583C285.331 128.56 285.488 128.866 285.319 129.068L271.248 145.767C271.055 145.996 271.074 146.353 271.288 146.56L288.52 163.245C288.605 163.326 288.554 163.47 288.436 163.48L160.183 174.32C159.817 174.351 159.45 174.263 159.133 174.066L136.179 159.847C136.08 159.786 136.065 159.647 136.148 159.566L156.215 139.877C156.505 139.592 156.878 139.42 157.275 139.386Z" fill="#91B3FA"/>
<path d="M161.908 153.018C161.661 153.018 161.45 152.826 161.43 152.577L161.174 149.299C161.152 149.035 161.351 148.804 161.614 148.784L232.844 143.222C232.856 143.22 232.869 143.22 232.881 143.22C233.127 143.22 233.339 143.412 233.359 143.661L233.615 146.939C233.636 147.201 233.438 147.434 233.175 147.454L161.945 153.016C161.933 153.018 161.92 153.018 161.908 153.018Z" fill="#CFDEFD"/>
<path d="M162.527 164.204C162.28 164.204 162.069 164.013 162.049 163.763L161.81 160.704C161.789 160.441 161.988 160.21 162.25 160.19L232.911 154.671C232.923 154.671 232.936 154.669 232.948 154.669C233.196 154.669 233.407 154.862 233.426 155.112L233.666 158.17C233.686 158.433 233.488 158.664 233.225 158.685L162.564 164.203C162.552 164.204 162.539 164.204 162.527 164.204Z" fill="#CFDEFD"/>
<path d="M179.067 128.152C178.838 128.152 178.634 128.008 178.571 127.794L178 125.883L178.177 125.7C178.169 125.779 178.229 125.856 178.315 125.856C178.32 125.856 178.324 125.856 178.328 125.855L318.69 114.207C319.09 114.175 319.47 114.024 319.779 113.776L342.089 95.8888C342.122 95.8613 342.142 95.8251 342.15 95.7876L342.278 95.7376L342.235 97.4882C342.226 97.8405 342.061 98.1741 341.781 98.4065L326.63 110.959L320.4 116.122C320.134 116.34 319.804 116.474 319.457 116.503L242.242 122.911L225.967 124.261L195.096 126.823L179.113 128.149C179.097 128.15 179.082 128.152 179.067 128.152ZM193.121 107.293C188.589 103.802 176.307 94.322 176.217 94.0596L175.511 91.3557L175.543 91.3545C175.524 91.4432 175.551 91.5419 175.637 91.6069L193.806 105.554C194.054 105.742 194.095 106.096 193.899 106.337L193.121 107.293Z" fill="url(#paint6_linear)"/>
<path d="M178.315 125.856C178.229 125.856 178.169 125.779 178.177 125.7C178.18 125.675 178.189 125.65 178.208 125.628L193.121 107.293L193.899 106.337C194.095 106.096 194.054 105.742 193.806 105.554L175.637 91.6069C175.551 91.542 175.524 91.4432 175.543 91.3545C175.565 91.2533 175.647 91.1646 175.769 91.1546L225.967 86.9889L242.242 85.6381L308.949 80.1029L315.751 79.5382C315.807 79.5332 315.863 79.5307 315.92 79.5307C316.297 79.5307 316.666 79.6356 316.982 79.8343L342.073 95.609C342.136 95.649 342.163 95.7215 342.15 95.7877C342.143 95.8252 342.123 95.8614 342.089 95.8889L319.779 113.776C319.47 114.024 319.09 114.175 318.69 114.208L178.328 125.855C178.324 125.856 178.32 125.856 178.315 125.856ZM313.614 100.591C313.601 100.591 313.589 100.592 313.576 100.592L244.561 105.982C244.299 106.002 244.1 106.235 244.121 106.497L244.37 109.681C244.39 109.931 244.6 110.122 244.848 110.122C244.86 110.122 244.873 110.122 244.885 110.12L313.9 104.73C314.164 104.71 314.361 104.479 314.341 104.215L314.091 101.033C314.073 100.782 313.861 100.591 313.614 100.591ZM313.5 88.7881C313.487 88.7881 313.475 88.7893 313.462 88.7906L243.891 94.2233C243.628 94.2433 243.431 94.4757 243.451 94.7381L243.717 98.1467C243.737 98.3966 243.948 98.589 244.195 98.589C244.207 98.589 244.22 98.5878 244.232 98.5865L313.804 93.1538C314.066 93.1338 314.265 92.9026 314.244 92.639L313.977 89.2304C313.957 88.9805 313.747 88.7881 313.5 88.7881Z" fill="url(#paint7_linear)"/>
<path d="M244.195 98.5889C243.948 98.5889 243.737 98.3965 243.717 98.1466L243.451 94.738C243.431 94.4756 243.628 94.2432 243.891 94.2232L313.462 88.7904C313.475 88.7892 313.487 88.7879 313.5 88.7879C313.747 88.7879 313.957 88.9803 313.977 89.2302L314.244 92.6388C314.265 92.9025 314.066 93.1336 313.803 93.1536L244.232 98.5864C244.22 98.5876 244.207 98.5889 244.195 98.5889Z" fill="url(#paint8_linear)"/>
<path d="M244.848 110.122C244.6 110.122 244.39 109.93 244.37 109.681L244.121 106.497C244.1 106.234 244.299 106.002 244.561 105.982L313.576 100.592C313.588 100.592 313.601 100.591 313.613 100.591C313.861 100.591 314.072 100.782 314.091 101.033L314.341 104.215C314.361 104.479 314.164 104.71 313.9 104.73L244.885 110.12C244.873 110.122 244.86 110.122 244.848 110.122Z" fill="url(#paint9_linear)"/>
<path d="M239.046 54.0924C239.046 56.835 236.821 59.0579 234.075 59.0579C231.331 59.0579 229.106 56.835 229.106 54.0924C229.106 51.3511 231.331 49.1282 234.075 49.1282C236.821 49.1282 239.046 51.3511 239.046 54.0924Z" fill="url(#paint10_linear)"/>
<path d="M237.465 53.3027C237.465 54.9857 236.099 56.3489 234.414 56.3489C232.73 56.3489 231.365 54.9857 231.365 53.3027C231.365 51.6196 232.73 50.2564 234.414 50.2564C236.099 50.2564 237.465 51.6196 237.465 53.3027Z" fill="url(#paint11_linear)"/>
<path d="M238.075 104.523C238.075 107.164 235.933 109.306 233.289 109.306C230.645 109.306 228.501 107.164 228.501 104.523C228.501 101.883 230.645 99.741 233.289 99.741C235.933 99.741 238.075 101.883 238.075 104.523Z" fill="url(#paint12_linear)"/>
<path d="M236.552 103.762C236.552 105.384 235.237 106.697 233.615 106.697C231.993 106.697 230.677 105.384 230.677 103.762C230.677 102.141 231.993 100.828 233.615 100.828C235.237 100.828 236.552 102.141 236.552 103.762Z" fill="url(#paint13_linear)"/>
<path d="M238.555 149.755C238.555 152.499 236.329 154.723 233.583 154.723C230.836 154.723 228.61 152.499 228.61 149.755C228.61 147.011 230.836 144.787 233.583 144.787C236.329 144.787 238.555 147.011 238.555 149.755Z" fill="url(#paint14_linear)"/>
<path d="M236.973 148.965C236.973 150.649 235.608 152.013 233.922 152.013C232.237 152.013 230.87 150.649 230.87 148.965C230.87 147.281 232.237 145.917 233.922 145.917C235.608 145.917 236.973 147.281 236.973 148.965Z" fill="url(#paint15_linear)"/>
<path d="M219.269 46.252C219.245 46.252 219.22 46.2495 219.195 46.2457L155.531 36.2099C155.27 36.1687 155.09 35.9225 155.132 35.6626L155.614 32.6101C155.651 32.3752 155.856 32.2066 156.087 32.2066C156.112 32.2066 156.137 32.2078 156.162 32.2116L219.827 42.2474C220.087 42.2886 220.265 42.536 220.224 42.7959L219.743 45.8471C219.705 46.082 219.5 46.252 219.269 46.252Z" fill="url(#paint16_linear)"/>
<path d="M216.866 56.6838C216.841 56.6838 216.818 56.6813 216.793 56.6776L153.637 46.7217C153.377 46.6805 153.197 46.4343 153.238 46.1744L153.687 43.3294C153.725 43.0932 153.93 42.9245 154.161 42.9245C154.186 42.9245 154.211 42.927 154.236 42.9308L217.39 52.8867C217.652 52.9279 217.831 53.174 217.789 53.4339L217.34 56.279C217.303 56.5139 217.098 56.6838 216.866 56.6838Z" fill="url(#paint17_linear)"/>
<path d="M127.356 187.662C87.9455 186.636 44.3498 197.212 44.3498 197.212C33.9709 254.429 38.5373 319.148 40.3042 338.75C40.6352 342.42 43.3835 345.401 47.012 346.067C67.377 349.807 88.8535 347.538 99.6581 345.895C103.86 345.256 107.221 342.085 108.114 337.933C115.253 304.733 135.649 231.491 135.649 231.491C154.929 229.287 170.848 223.887 183.982 216.672C174.127 205.037 169.568 190.308 167.611 181.608C153.635 185.801 139.511 187.978 127.356 187.662Z" fill="url(#paint18_linear)"/>
<path d="M244.336 130.771C240.509 126.061 236.914 126.265 236.914 126.265C230.88 150.687 198.95 172.205 167.611 181.608C169.568 190.308 174.127 205.037 183.982 216.672C236.115 188.039 244.336 130.771 244.336 130.771Z" fill="url(#paint19_linear)"/>
<path d="M243.384 131.949C243.777 133.239 239.067 135.154 236.355 129.865C236.283 127.342 234.851 116.521 236.378 114.481C244.517 103.614 260.226 90.0449 260.226 90.0449C262.835 92.665 260.641 95.194 260.641 95.194L253.008 102.987C254.563 105.855 256.468 108.282 257.338 111.742C257.997 114.362 257.552 117.152 256.207 119.519C254.858 121.893 253.02 124.979 251.285 127.392C248.003 131.959 243.384 131.949 243.384 131.949Z" fill="url(#paint20_linear)"/>
<path d="M249.655 108.058L242.713 113.825L240.495 119.61L246.57 126.474C246.57 126.474 248.745 114.972 250.303 112.493C251.861 110.014 251.077 108.801 249.655 108.058Z" fill="url(#paint21_linear)"/>
<path d="M59.1038 235.484L44.3498 197.212C44.3498 197.212 7.29455 221.851 0.937256 253.479C7.889 254.058 20.5301 255.987 32.8608 262.354C35.7264 247.419 59.1038 235.484 59.1038 235.484Z" fill="url(#paint22_linear)"/>
<path d="M90.9345 271.671C90.9345 271.671 49.3762 294.615 35.6191 274.553C32.7631 270.388 32.1099 266.269 32.8608 262.355C20.53 255.987 7.88894 254.058 0.937191 253.48C-0.979342 263.016 -0.111495 273.184 5.40898 283.506C29.4137 328.387 96.3074 281.904 96.3074 281.904L90.9345 271.671Z" fill="url(#paint23_linear)"/>
<path d="M87.7355 155.313L74.8473 191.428C74.6347 192.025 74.8748 192.692 75.4289 193.006C78.8294 194.926 91.0935 200.502 106.027 191.242C107.582 190.277 108.651 188.69 108.902 186.879L113.263 155.555L87.7355 155.313Z" fill="url(#paint24_linear)"/>
<path d="M115.344 122.018C115.344 122.018 128.869 148.048 127.004 158.494C125.138 168.94 108.077 168.025 93.2544 159.386L83.1064 131.321L115.344 122.018Z" fill="url(#paint25_linear)"/>
<path d="M94.0438 145.659C94.6528 145.397 94.883 144.659 94.5253 144.101C93.4384 142.407 91.4023 138.951 90.772 135.937C90.772 135.937 88.3107 134.33 97.1079 132.315C105.905 130.3 119.025 127.166 121.848 119.729C124.599 112.477 117.727 94.1096 106.343 108.584C105.91 109.135 105.072 109.14 104.649 108.58C102.83 106.166 98.0309 101.144 91.2748 104.097C84.9514 106.858 84.1985 111.461 84.2623 113.785C84.281 114.469 83.6644 114.995 82.9941 114.86C79.8161 114.222 72.182 113.629 68.5425 121.424C65.5437 127.844 67.4182 131.513 69.1391 133.315C69.6969 133.898 69.4405 134.849 68.6663 135.078C66.5677 135.697 63.8497 137.444 64.0732 142.343C64.3825 149.117 71.9644 148.592 74.1243 148.303C74.4782 148.257 74.8334 148.382 75.0698 148.648C76.8995 150.711 85.149 159.472 94.1576 160.604C94.938 160.703 95.5508 159.938 95.302 159.192L91.5074 147.821C91.3311 147.292 91.5887 146.718 92.1002 146.497L94.0438 145.659Z" fill="url(#paint26_linear)"/>
<path d="M95.5971 147.283C95.5971 147.283 85.8569 140.468 85.0852 146.122C84.316 151.774 93.8374 154.405 98.5862 152.339L95.5971 147.283Z" fill="url(#paint27_linear)"/>
<path d="M82.4412 307.932L105.08 228.947C105.337 228.051 106.103 227.398 107.029 227.289C111.132 226.812 123.017 225.469 136.739 224.309C153.269 222.912 172.465 221.78 183.936 222.743C185.566 222.88 186.551 224.604 185.826 226.07C179.303 239.253 152.473 292.883 139.035 310.452C138.59 311.033 137.902 311.374 137.169 311.367L84.6436 310.879C83.1153 310.864 82.0209 309.4 82.4412 307.932Z" fill="url(#paint28_linear)"/>
<path d="M87.9118 288.849C87.9118 288.849 84.7576 275.894 86.0295 271.298C87.3015 266.702 89.7665 260.793 97.9822 262.106C106.197 263.419 115.888 266.877 115.888 266.877C115.888 266.877 115.398 272.863 109.154 270.931L113.027 273.925C113.027 273.925 112.473 278.718 107.2 276.158L110.8 280.126C110.8 280.126 108.535 284.063 104.655 281.538C100.775 279.013 98.9152 290.409 87.9118 288.849Z" fill="url(#paint29_linear)"/>
<path d="M135.23 247.888C135.23 251.554 138.205 254.527 141.876 254.527C145.547 254.527 148.521 251.554 148.521 247.888C148.521 244.221 145.547 241.248 141.876 241.248C138.205 241.248 135.23 244.221 135.23 247.888Z" fill="#91B3FA"/>
<path d="M107.641 252.264L112.251 236.643C112.816 234.725 114.36 233.284 116.279 232.884C130.726 229.873 170.267 229.235 170.665 229.228L170.639 227.463C169.008 227.488 130.53 228.111 115.918 231.157C113.362 231.69 111.307 233.601 110.556 236.144L105.946 251.765L107.641 252.264Z" fill="#BDD0FB"/>
<path d="M240.525 345.888C240.059 345.81 239.647 345.55 239.378 345.162C235.451 339.506 206.997 295.314 247.973 257.06C286.873 220.745 304.207 213.587 307.186 191.615C307.534 189.05 311.037 188.542 312.109 190.9C320.119 208.519 332.169 249.42 287.154 274.574C237.496 302.321 240.461 334.573 242.525 343.777C242.798 344.994 241.756 346.096 240.525 345.888Z" fill="#91B3FA"/>
<path d="M246.541 346.903C245.438 346.717 244.586 345.835 244.451 344.725C243.528 337.17 241.572 308.983 262.528 302.194C272.586 298.937 281.63 301.245 290.064 303.551C300.978 306.537 310.873 309.522 320.628 300.456C321.539 299.612 322.997 300.42 322.748 301.637C320.977 310.265 313.688 330.149 283.987 333.248C252.199 336.565 248.521 340.079 249.016 344.598C249.169 345.992 247.924 347.137 246.541 346.903Z" fill="#91B3FA"/>
<path d="M237.697 338.427C237.566 338.427 237.442 338.349 237.388 338.223C234.91 332.269 233.11 326.003 232.241 319.58C231.793 316.372 231.587 313.126 231.618 309.881C231.669 306.636 231.936 303.39 232.473 300.185C233.52 293.77 235.541 287.518 238.383 281.667C241.224 275.813 244.901 270.381 249.141 265.457C253.391 260.537 258.223 256.125 263.503 252.325C266.144 250.427 268.898 248.682 271.762 247.127L273.869 245.978C274.572 245.605 275.256 245.202 275.939 244.797L276.966 244.193L277.974 243.557L278.981 242.921L279.969 242.258C282.602 240.482 285.144 238.573 287.539 236.488C289.936 234.406 292.218 232.187 294.308 229.794C296.423 227.423 298.348 224.883 300.097 222.225C301.828 219.565 303.389 216.746 304.535 213.804L304.541 213.784C304.588 213.664 304.703 213.59 304.825 213.59C304.861 213.59 304.899 213.596 304.935 213.611C305.082 213.669 305.159 213.83 305.115 213.98C304.642 215.557 304.037 217.053 303.343 218.524C302.655 219.992 301.894 221.427 301.077 222.829C300.26 224.232 299.386 225.602 298.439 226.923C297.498 228.246 296.52 229.546 295.476 230.793C291.327 235.803 286.406 240.161 281.041 243.836C278.362 245.67 275.53 247.328 272.694 248.845C269.9 250.347 267.206 252.039 264.619 253.882C259.448 257.57 254.703 261.866 250.531 266.658C246.355 271.447 242.778 276.755 239.934 282.43C237.086 288.101 235.03 294.176 233.923 300.433C232.811 306.687 232.65 313.109 233.375 319.437C234.088 325.773 235.743 331.993 238.005 337.977C238.071 338.148 237.985 338.339 237.815 338.406C237.776 338.421 237.736 338.427 237.697 338.427Z" fill="#C5D7FC"/>
<path d="M245.818 342.038C245.713 342.038 245.617 341.966 245.59 341.86C245.582 341.825 245.58 341.789 245.587 341.756C245.639 341.493 245.63 341.238 245.629 340.979L245.633 340.206C245.639 339.691 245.653 339.175 245.67 338.66C245.709 337.631 245.769 336.602 245.852 335.575C246.018 333.521 246.267 331.472 246.617 329.439C247.326 325.379 248.399 321.35 250.178 317.595C251.065 315.721 252.148 313.928 253.462 312.306C254.77 310.681 256.35 309.26 258.138 308.157C259.932 307.067 261.938 306.315 264.008 305.966C265.041 305.788 266.089 305.686 267.136 305.683C267.26 305.68 267.382 305.679 267.505 305.679C268.429 305.679 269.351 305.749 270.265 305.856C271.307 305.984 272.312 306.166 273.33 306.337L276.372 306.875C278.399 307.243 280.42 307.633 282.439 308.035C286.477 308.835 290.5 309.712 294.536 310.454C296.553 310.821 298.578 311.149 300.61 311.353C301.752 311.465 302.9 311.536 304.043 311.536C304.931 311.536 305.815 311.493 306.695 311.392C308.703 311.174 310.67 310.606 312.444 309.645C314.225 308.693 315.798 307.376 317.196 305.901C317.25 305.845 317.322 305.816 317.394 305.816C317.46 305.816 317.527 305.841 317.579 305.89C317.687 305.991 317.692 306.161 317.592 306.27C316.182 307.792 314.579 309.169 312.738 310.182C310.903 311.203 308.851 311.821 306.775 312.07C305.839 312.181 304.902 312.227 303.966 312.227C302.82 312.227 301.676 312.157 300.541 312.05C298.479 311.849 296.438 311.523 294.408 311.16C290.35 310.426 286.327 309.56 282.293 308.773C278.264 307.985 274.207 307.226 270.169 306.626C269.243 306.511 268.31 306.435 267.378 306.435C267.3 306.435 267.222 306.436 267.143 306.436C267.121 306.436 267.097 306.436 267.074 306.436C266.088 306.436 265.102 306.527 264.132 306.688C262.143 307.008 260.222 307.713 258.495 308.745C256.774 309.79 255.242 311.145 253.961 312.715C252.674 314.278 251.604 316.022 250.717 317.854C248.933 321.522 247.829 325.501 247.086 329.522C246.72 331.536 246.451 333.57 246.266 335.61C246.174 336.631 246.104 337.653 246.056 338.676C246.032 339.189 246.014 339.7 246.003 340.212L245.991 340.981C245.988 341.235 245.982 341.494 246.046 341.744C246.078 341.87 246.002 341.998 245.876 342.03C245.857 342.035 245.837 342.038 245.818 342.038Z" fill="#C5D7FC"/>
<defs>
<linearGradient id="paint0_linear" x1="-19.7468" y1="391.595" x2="234.864" y2="116.522" gradientUnits="userSpaceOnUse">
<stop stop-color="#C4D5FD"/>
<stop offset="1" stop-color="#CEDDFC"/>
</linearGradient>
<linearGradient id="paint1_linear" x1="225.967" y1="186.319" x2="242.242" y2="186.319" gradientUnits="userSpaceOnUse">
<stop stop-color="#FE7062"/>
<stop offset="1" stop-color="#FF928E"/>
</linearGradient>
<linearGradient id="paint2_linear" x1="216.978" y1="-13.3008" x2="252.89" y2="46.87" gradientUnits="userSpaceOnUse">
<stop stop-color="#E1473D"/>
<stop offset="1" stop-color="#E9605A"/>
</linearGradient>
<linearGradient id="paint3_linear" x1="217.353" y1="-7.54439" x2="245.273" y2="39.2368" gradientUnits="userSpaceOnUse">
<stop stop-color="#FE7062"/>
<stop offset="1" stop-color="#FF928E"/>
</linearGradient>
<linearGradient id="paint4_linear" x1="210.119" y1="-10.5433" x2="195.516" y2="96.8969" gradientUnits="userSpaceOnUse">
<stop stop-color="#E1473D"/>
<stop offset="1" stop-color="#E9605A"/>
</linearGradient>
<linearGradient id="paint5_linear" x1="204.668" y1="22.0568" x2="198.272" y2="113.227" gradientUnits="userSpaceOnUse">
<stop stop-color="#FE7062"/>
<stop offset="1" stop-color="#FF928E"/>
</linearGradient>
<linearGradient id="paint6_linear" x1="257.083" y1="-111.006" x2="257.919" y2="-16.4125" gradientUnits="userSpaceOnUse">
<stop stop-color="#4F52FF"/>
<stop offset="1" stop-color="#4042E2"/>
</linearGradient>
<linearGradient id="paint7_linear" x1="343.581" y1="28.4544" x2="498.484" y2="-91.3958" gradientUnits="userSpaceOnUse">
<stop stop-color="#4F52FF"/>
<stop offset="1" stop-color="#4042E2"/>
</linearGradient>
<linearGradient id="paint8_linear" x1="343.581" y1="28.4543" x2="498.483" y2="-91.3957" gradientUnits="userSpaceOnUse">
<stop stop-color="#B2B3FF"/>
<stop offset="1" stop-color="#ABACF2"/>
</linearGradient>
<linearGradient id="paint9_linear" x1="343.581" y1="28.4545" x2="498.483" y2="-91.3956" gradientUnits="userSpaceOnUse">
<stop stop-color="#B2B3FF"/>
<stop offset="1" stop-color="#ABACF2"/>
</linearGradient>
<linearGradient id="paint10_linear" x1="237.228" y1="39.576" x2="222.797" y2="106.158" gradientUnits="userSpaceOnUse">
<stop stop-color="#E1473D"/>
<stop offset="1" stop-color="#E9605A"/>
</linearGradient>
<linearGradient id="paint11_linear" x1="234.164" y1="41.9387" x2="234.486" y2="56.5893" gradientUnits="userSpaceOnUse">
<stop stop-color="#E1473D"/>
<stop offset="1" stop-color="#E9605A"/>
</linearGradient>
<linearGradient id="paint12_linear" x1="236.325" y1="90.5411" x2="222.426" y2="154.671" gradientUnits="userSpaceOnUse">
<stop stop-color="#E1473D"/>
<stop offset="1" stop-color="#E9605A"/>
</linearGradient>
<linearGradient id="paint13_linear" x1="233.374" y1="92.8164" x2="233.683" y2="106.927" gradientUnits="userSpaceOnUse">
<stop stop-color="#E1473D"/>
<stop offset="1" stop-color="#E9605A"/>
</linearGradient>
<linearGradient id="paint14_linear" x1="236.737" y1="135.23" x2="222.297" y2="201.852" gradientUnits="userSpaceOnUse">
<stop stop-color="#E1473D"/>
<stop offset="1" stop-color="#E9605A"/>
</linearGradient>
<linearGradient id="paint15_linear" x1="233.672" y1="137.594" x2="233.993" y2="152.253" gradientUnits="userSpaceOnUse">
<stop stop-color="#E1473D"/>
<stop offset="1" stop-color="#E9605A"/>
</linearGradient>
<linearGradient id="paint16_linear" x1="204.668" y1="22.0571" x2="198.272" y2="113.227" gradientUnits="userSpaceOnUse">
<stop stop-color="#FFC0BA"/>
<stop offset="1" stop-color="#FFCFCD"/>
</linearGradient>
<linearGradient id="paint17_linear" x1="204.669" y1="22.0569" x2="198.272" y2="113.228" gradientUnits="userSpaceOnUse">
<stop stop-color="#FFC0BA"/>
<stop offset="1" stop-color="#FFCFCD"/>
</linearGradient>
<linearGradient id="paint18_linear" x1="87.2614" y1="182.227" x2="177.417" y2="529.658" gradientUnits="userSpaceOnUse">
<stop stop-color="#4F52FF"/>
<stop offset="1" stop-color="#4042E2"/>
</linearGradient>
<linearGradient id="paint19_linear" x1="167.712" y1="171.063" x2="243.946" y2="171.788" gradientUnits="userSpaceOnUse">
<stop stop-color="#FEBBBA"/>
<stop offset="1" stop-color="#FF928E"/>
</linearGradient>
<linearGradient id="paint20_linear" x1="227.079" y1="159.586" x2="174.903" y2="275.413" gradientUnits="userSpaceOnUse">
<stop stop-color="#FEBBBA"/>
<stop offset="1" stop-color="#FF928E"/>
</linearGradient>
<linearGradient id="paint21_linear" x1="244.063" y1="121.02" x2="265.691" y2="88.4169" gradientUnits="userSpaceOnUse">
<stop stop-color="#FEBBBA"/>
<stop offset="1" stop-color="#FF928E"/>
</linearGradient>
<linearGradient id="paint22_linear" x1="18.496" y1="200.155" x2="106.667" y2="539.939" gradientUnits="userSpaceOnUse">
<stop stop-color="#4F52FF"/>
<stop offset="1" stop-color="#4042E2"/>
</linearGradient>
<linearGradient id="paint23_linear" x1="-0.136262" y1="278.074" x2="96.3356" y2="278.992" gradientUnits="userSpaceOnUse">
<stop stop-color="#FEBBBA"/>
<stop offset="1" stop-color="#FF928E"/>
</linearGradient>
<linearGradient id="paint24_linear" x1="74.9236" y1="175.744" x2="113.067" y2="176.107" gradientUnits="userSpaceOnUse">
<stop stop-color="#FEBBBA"/>
<stop offset="1" stop-color="#FF928E"/>
</linearGradient>
<linearGradient id="paint25_linear" x1="122.37" y1="151.95" x2="80.698" y2="125.963" gradientUnits="userSpaceOnUse">
<stop stop-color="#FEBBBA"/>
<stop offset="1" stop-color="#FF928E"/>
</linearGradient>
<linearGradient id="paint26_linear" x1="58.7334" y1="98.8501" x2="112.464" y2="142.164" gradientUnits="userSpaceOnUse">
<stop stop-color="#09005D"/>
<stop offset="1" stop-color="#1A0F91"/>
</linearGradient>
<linearGradient id="paint27_linear" x1="111.264" y1="161.375" x2="73.7712" y2="137.994" gradientUnits="userSpaceOnUse">
<stop stop-color="#FEBBBA"/>
<stop offset="1" stop-color="#FF928E"/>
</linearGradient>
<linearGradient id="paint28_linear" x1="122.204" y1="216.835" x2="175.341" y2="438.451" gradientUnits="userSpaceOnUse">
<stop stop-color="#09005D"/>
<stop offset="1" stop-color="#1A0F91"/>
</linearGradient>
<linearGradient id="paint29_linear" x1="85.7269" y1="275.458" x2="115.887" y2="275.458" gradientUnits="userSpaceOnUse">
<stop stop-color="#FEBBBA"/>
<stop offset="1" stop-color="#FF928E"/>
</linearGradient>
</defs>
</svg>
