<svg  viewBox="0 0 466 334" fill="none" xmlns="http://www.w3.org/2000/svg">
<path d="M93.3649 164.837C93.1319 166.163 91.8635 167.057 90.5372 166.831L90.5254 166.828L4.48131 151.726C3.14961 151.492 2.25627 150.218 2.49015 148.886L17.5932 62.842C17.8258 61.5164 19.0945 60.6221 20.4208 60.8487L20.4323 60.8506L106.476 75.9539C107.808 76.1878 108.702 77.4613 108.468 78.793L93.3649 164.837ZM106.9 73.5385L20.8563 58.4354C20.8486 58.4342 20.8413 58.4329 20.8336 58.4313C18.1744 57.9776 15.6448 59.7579 15.1777 62.4181L14.3687 67.0282C14.3687 67.0282 14.3687 67.0282 14.3687 67.0285L0.883992 143.852C0.883992 143.852 0.883992 143.853 0.883992 143.853L0.0746865 148.462C-0.393709 151.13 1.38977 153.672 4.05764 154.141L42.4427 160.878L85.4916 168.434C85.4919 168.435 85.4922 168.435 85.4929 168.435L90.1017 169.244C90.1091 169.245 90.1168 169.246 90.1244 169.248C92.7837 169.702 95.3132 167.921 95.78 165.261L96.5893 160.652C96.5893 160.651 96.5893 160.651 96.5893 160.651L106.465 104.391L110.074 83.8272L110.883 79.217C111.352 76.5492 109.568 74.0069 106.9 73.5385Z" fill="#597B4C"/>
<path d="M106.476 75.954L20.4322 60.8507L20.4207 60.8488C19.0945 60.6222 17.8257 61.5165 17.5931 62.8421L2.49008 148.887C2.25621 150.218 3.14954 151.492 4.48124 151.726L90.5253 166.828L90.5372 166.831C91.8634 167.057 93.1319 166.163 93.3648 164.837L108.468 78.7931C108.702 77.4614 107.808 76.1879 106.476 75.954Z" fill="#FBF2D1"/>
<path d="M107.87 76.7282L3.08252 150.946C3.43653 151.341 3.91931 151.627 4.48164 151.726L90.5254 166.829L90.5373 166.831C91.8635 167.057 93.1323 166.163 93.3649 164.837L108.468 78.7931C108.603 78.0209 108.358 77.2697 107.87 76.7282Z" fill="#EFE4C0"/>
<path d="M71.5958 89.5654L57.9046 80.0195L57.9986 90.6274C38.5046 95.2644 24.0847 112.875 24.2693 133.762C24.3176 139.206 25.3566 144.409 27.2094 149.205C27.6376 131.362 40.9162 116.653 58.2056 114.073L58.3031 125.082L72.5479 114.771L89.8175 102.27L71.5958 89.5654Z" fill="#597B4C"/>
<path d="M64.0745 233.539C63.755 233.859 58.6429 184.016 58.6429 184.016L65.9915 168.999L65.672 165.165L44.9042 161.331L42.6676 163.248C42.6676 163.248 39.4726 162.289 41.3896 160.692C43.8444 158.647 43.9456 157.816 43.9456 157.816L40.7506 154.302L29.8874 156.219C29.8874 156.219 27.0118 163.567 29.8874 169.318C32.7629 175.069 41.0701 188.489 41.0701 188.489L41.3896 227.788L64.0745 233.539Z" fill="#EBCEB1"/>
<path d="M32.1241 210.535L23.7764 333.544H83.7859C77.8536 290.807 65.3527 217.564 65.3527 217.564L32.1241 210.535Z" fill="#90A2AF"/>
<path d="M171.862 83.4356L167.143 104.796L160.757 77.6315L237.959 -6.10352e-05L171.862 83.4356Z" fill="#3A6594"/>
<path d="M167.143 104.796L171.653 83.796L237.824 0.325836L167.143 104.796Z" fill="#59595B"/>
<path d="M237.824 0.325684L237.959 -0.000217557L237.096 1.06055L237.824 0.325684Z" fill="#698178"/>
<path d="M237.824 0.325745L237.096 1.06061L171.647 83.6713L171.568 83.7486L202.925 100.952L237.824 0.325745Z" fill="#92C6E2"/>
<path d="M237.959 -8.39233e-05L133.894 63.0796L160.649 77.7583L237.096 1.06068L237.959 -8.39233e-05Z" fill="#92C6E2"/>
<path d="M144.909 145.995L147.785 130.658L136.602 98.0688L149.87 71.8445L160.885 77.6205L167.275 104.778L172.706 96.7908L172.387 90.4007L176.86 86.5666L182.292 89.4422L185.806 107.015L169.192 143.439C169.192 143.439 169.831 156.538 169.192 156.538C168.553 156.538 144.909 145.995 144.909 145.995Z" fill="#EBCEB1"/>
<path d="M141.241 139.471L180.055 149.19L184.787 239.497L218.235 333.544H135.963L125.717 239.383L141.241 139.471Z" fill="#59595B"/>
<path d="M290.963 111.799C286.972 108.317 281.474 107.653 276.911 109.639L257.853 87.8473C261.107 83.7746 262.432 78.728 261.907 73.8676L289.541 66.8673C290.439 68.7249 291.72 70.4349 293.369 71.8752C299.951 77.6158 309.974 76.9336 315.715 70.3537C321.453 63.7741 320.773 53.751 314.194 48.0101C307.613 42.2692 297.59 42.9516 291.848 49.5312C289.391 52.3473 288.113 55.7942 287.966 59.2659L259.526 66.4711C258.493 64.6528 257.143 62.9748 255.481 61.5239C247.54 54.5954 235.442 55.4188 228.514 63.3601C221.585 71.3011 222.409 83.3985 230.35 90.3273C236.411 95.6151 244.892 96.3867 251.649 92.9258L270.879 114.912C267.586 120.329 268.564 127.508 273.499 131.814C279.017 136.629 287.423 136.056 292.238 130.538C297.053 125.02 296.481 116.613 290.963 111.799Z" fill="#3A6594"/>
<path d="M284.972 108.817L282.937 105.098C282.937 105.098 275.547 102.727 276.358 109.005C276.441 109.636 276.601 110.352 276.866 111.168C280.071 121.126 281.03 122.705 281.02 122.671L279.052 134.696C277.058 134.207 275.151 133.253 273.499 131.813C268.564 127.507 267.586 120.328 270.879 114.912L265.608 108.886C263.541 108.853 260.991 109.406 258.015 111.168C233.732 125.546 241.03 139.199 241.03 139.199L261.849 169.638L264.989 173.94C264.745 174.298 264.779 174.699 264.97 174.999L262.807 210.535L290.925 201.908V164.845L292.203 153.663L294.66 126.49L284.972 108.817Z" fill="#EBCEB1"/>
<path d="M255.139 190.086L245.292 333.544H308.453L297.315 169.319L255.139 190.086Z" fill="#8E9BA2"/>
<path d="M418.791 178.249L417.238 154.985L404.288 145.921L368.638 163.747L365.916 183.99L380.421 207.858V227.497L405.496 221.756L418.791 178.249Z" fill="#EBCEB1"/>
<path d="M353.372 60.3373C359.165 54.2073 368.005 52.6973 375.3 55.9297L350.215 82.481C346.576 75.3819 347.579 66.4674 353.372 60.3373Z" fill="#2E4661"/>
<path d="M411.353 147.228L432.779 167.471C434.702 169.288 437.737 169.203 439.555 167.278L464.691 140.67C466.509 138.746 466.422 135.713 464.499 133.895L443.073 113.652L411.353 147.228Z" fill="#CBCCCE"/>
<path d="M424.928 160.055L411.353 147.228L443.073 113.652L456.649 126.48L424.928 160.055Z" fill="#821B2E"/>
<path d="M320.945 113.283L404.049 25.3201C404.643 57.5985 417.692 89.6244 442.984 113.566L411.26 147.144C385.923 123.251 353.206 112.044 320.945 113.283Z" fill="#CBCCCE"/>
<path d="M424.657 159.939L384.719 194.934C382.987 196.139 380.648 195.964 379.115 194.516L366.076 182.179C364.021 180.238 364.274 176.898 366.593 175.284L411.298 147.32L424.657 159.939Z" fill="#2E4661"/>
<path d="M403.272 26.1427L320.945 113.283C352.701 112.063 384.898 122.903 410.062 146.029C403.419 136.308 363.571 73.7512 403.272 26.1427Z" fill="#BFC1C4"/>
<path d="M408.643 224.764V207.636L425.136 177.822L411.496 154.985L405.47 160.694V167.672L407.055 175.919L389.93 193.363C389.93 193.363 393.099 224.129 394.051 224.764C395.003 225.398 408.643 224.764 408.643 224.764Z" fill="#EBCEB1"/>
<path d="M404.288 145.921L402.477 155.589L389.786 183.688H375.383C375.383 183.688 366.219 178.551 367.127 174.926C368.031 171.3 368.638 163.747 368.638 163.747L404.288 145.921Z" fill="#EBCEB1"/>
<path d="M371.759 222.357L413.161 210.873L418.832 333.544H356.449L371.759 222.357Z" fill="#293A53"/>
</svg>
